%TF.GenerationSoftware,KiCad,Pcbnew,(6.0.0-0)*%
%TF.CreationDate,2022-07-24T14:36:36-07:00*%
%TF.ProjectId,ESP12_Harness,45535031-325f-4486-9172-6e6573732e6b,rev?*%
%TF.SameCoordinates,Original*%
%TF.FileFunction,Copper,L2,Bot*%
%TF.FilePolarity,Positive*%
%FSLAX46Y46*%
G04 Gerber Fmt 4.6, Leading zero omitted, Abs format (unit mm)*
G04 Created by KiCad (PCBNEW (6.0.0-0)) date 2022-07-24 14:36:36*
%MOMM*%
%LPD*%
G01*
G04 APERTURE LIST*
%TA.AperFunction,ComponentPad*%
%ADD10O,2.416000X1.208000*%
%TD*%
%TA.AperFunction,ComponentPad*%
%ADD11O,1.208000X2.416000*%
%TD*%
%TA.AperFunction,ViaPad*%
%ADD12C,0.800000*%
%TD*%
%TA.AperFunction,ViaPad*%
%ADD13C,0.609600*%
%TD*%
%TA.AperFunction,Conductor*%
%ADD14C,0.508000*%
%TD*%
G04 APERTURE END LIST*
D10*
%TO.P,POGO-ESP-12,VCC,VCC*%
%TO.N,Net-(POGO-ESP-12-PadVCC)*%
X-33296700Y-18453100D03*
%TO.P,POGO-ESP-12,TX,TX*%
%TO.N,Net-(POGO-ESP-12-PadTX)*%
X-18088700Y-4453100D03*
%TO.P,POGO-ESP-12,RX,RX*%
%TO.N,Net-(POGO-ESP-12-PadRX)*%
X-18088700Y-6453100D03*
%TO.P,POGO-ESP-12,RESET,RESET*%
%TO.N,Net-(POGO-ESP-12-PadRESET)*%
X-33296700Y-4453100D03*
%TO.P,POGO-ESP-12,GPIO16,GPIO16*%
%TO.N,Net-(POGO-ESP-12-PadGPIO16)*%
X-33296700Y-10453100D03*
%TO.P,POGO-ESP-12,GPIO15,GPIO15*%
%TO.N,Net-(POGO-ESP-12-PadGPIO15)*%
X-18088700Y-16453100D03*
%TO.P,POGO-ESP-12,GPIO14,GPIO14*%
%TO.N,Net-(POGO-ESP-12-PadGPIO14)*%
X-33296700Y-12453100D03*
%TO.P,POGO-ESP-12,GPIO13,GPIO13*%
%TO.N,Net-(POGO-ESP-12-PadGPIO13)*%
X-33296700Y-16453100D03*
%TO.P,POGO-ESP-12,GPIO12,GPIO12*%
%TO.N,Net-(POGO-ESP-12-PadGPIO12)*%
X-33296700Y-14453100D03*
%TO.P,POGO-ESP-12,GPIO5,GPIO5*%
%TO.N,Net-(POGO-ESP-12-PadGPIO5)*%
X-18088700Y-10453100D03*
%TO.P,POGO-ESP-12,GPIO4,GPIO4*%
%TO.N,Net-(POGO-ESP-12-PadGPIO4)*%
X-18088700Y-8453100D03*
%TO.P,POGO-ESP-12,GPIO2,GPIO2*%
%TO.N,Net-(POGO-ESP-12-PadGPIO2)*%
X-18088700Y-14453100D03*
%TO.P,POGO-ESP-12,GPIO0,GPIO0*%
%TO.N,Net-(POGO-ESP-12-PadGPIO0)*%
X-18088700Y-12453100D03*
%TO.P,POGO-ESP-12,GND,GND*%
%TO.N,Net-(POGO-ESP-12-PadGND)*%
X-18088700Y-18453100D03*
%TO.P,POGO-ESP-12,CH_PD,CH_PD*%
%TO.N,Net-(POGO-ESP-12-PadCH_PD)*%
X-33296700Y-8453100D03*
%TO.P,POGO-ESP-12,ADC,ADC*%
%TO.N,Net-(POGO-ESP-12-PadADC)*%
X-33296700Y-6453100D03*
%TD*%
D11*
%TO.P,WEMOS-D1,ADC,ADC*%
%TO.N,Net-(POGO-ESP-12-PadADC)*%
X-26145200Y-43946600D03*
%TO.P,WEMOS-D1,CH_PD,CH_PD*%
%TO.N,Net-(POGO-ESP-12-PadCH_PD)*%
X-28145200Y-43946600D03*
%TO.P,WEMOS-D1,GND,GND*%
%TO.N,Net-(POGO-ESP-12-PadGND)*%
X-38145200Y-28738600D03*
%TO.P,WEMOS-D1,GPIO0,GPIO0*%
%TO.N,Net-(POGO-ESP-12-PadGPIO0)*%
X-32145200Y-28738600D03*
%TO.P,WEMOS-D1,GPIO2,GPIO2*%
%TO.N,Net-(POGO-ESP-12-PadGPIO2)*%
X-34145200Y-28738600D03*
%TO.P,WEMOS-D1,GPIO4,GPIO4*%
%TO.N,Net-(POGO-ESP-12-PadGPIO4)*%
X-28145200Y-28738600D03*
%TO.P,WEMOS-D1,GPIO5,GPIO5*%
%TO.N,Net-(POGO-ESP-12-PadGPIO5)*%
X-30145200Y-28738600D03*
%TO.P,WEMOS-D1,GPIO12,GPIO12*%
%TO.N,Net-(POGO-ESP-12-PadGPIO12)*%
X-34145200Y-43946600D03*
%TO.P,WEMOS-D1,GPIO13,GPIO13*%
%TO.N,Net-(POGO-ESP-12-PadGPIO13)*%
X-36145200Y-43946600D03*
%TO.P,WEMOS-D1,GPIO14,GPIO14*%
%TO.N,Net-(POGO-ESP-12-PadGPIO14)*%
X-32145200Y-43946600D03*
%TO.P,WEMOS-D1,GPIO15,GPIO15*%
%TO.N,Net-(POGO-ESP-12-PadGPIO15)*%
X-36145200Y-28738600D03*
%TO.P,WEMOS-D1,GPIO16,GPIO16*%
%TO.N,Net-(POGO-ESP-12-PadGPIO16)*%
X-30145200Y-43946600D03*
%TO.P,WEMOS-D1,RESET,RESET*%
%TO.N,Net-(POGO-ESP-12-PadRESET)*%
X-24145200Y-43946600D03*
%TO.P,WEMOS-D1,RX,RX*%
%TO.N,Net-(POGO-ESP-12-PadRX)*%
X-26145200Y-28738600D03*
%TO.P,WEMOS-D1,TX,TX*%
%TO.N,Net-(POGO-ESP-12-PadTX)*%
X-24145200Y-28738600D03*
%TO.P,WEMOS-D1,VCC,VCC*%
%TO.N,Net-(POGO-ESP-12-PadVCC)*%
X-38145200Y-43946600D03*
%TD*%
D12*
%TO.N,Net-(POGO-ESP-12-PadADC)*%
X-42062400Y-32766000D03*
X-33153400Y-41535400D03*
%TO.N,Net-(POGO-ESP-12-PadGPIO16)*%
X-39116000Y-19964400D03*
%TO.N,Net-(POGO-ESP-12-PadRX)*%
X-21183600Y-27330400D03*
%TO.N,Net-(POGO-ESP-12-PadTX)*%
X-20878800Y-29006800D03*
D13*
%TO.N,Net-(POGO-ESP-12-PadGPIO5)*%
X-19818400Y-14116100D03*
%TO.N,Net-(POGO-ESP-12-PadCH_PD)*%
X-34105900Y-39833600D03*
%TO.N,Net-(POGO-ESP-12-PadGPIO14)*%
X-23945900Y-11258600D03*
%TO.N,Net-(POGO-ESP-12-PadGPIO12)*%
X-29978400Y-13163600D03*
%TO.N,Net-(POGO-ESP-12-PadGPIO13)*%
X-26924000Y-13614400D03*
%TD*%
D14*
%TO.N,Net-(POGO-ESP-12-PadRX)*%
X-26145200Y-29342600D02*
X-26168400Y-29356100D01*
X-26168400Y-29356100D02*
X-27438400Y-30626100D01*
X-27438400Y-30626100D02*
X-32518400Y-30626100D01*
X-25704800Y-10617200D02*
X-21583700Y-6496100D01*
X-32518400Y-30626100D02*
X-33153400Y-29991100D01*
X-33153400Y-22688600D02*
X-25704800Y-15240000D01*
X-21583700Y-6496100D02*
X-18865900Y-6496100D01*
X-33153400Y-29991100D02*
X-33153400Y-22688600D01*
X-18865900Y-6496100D02*
X-18692700Y-6453100D01*
X-25704800Y-15240000D02*
X-25704800Y-10617200D01*
%TO.N,Net-(POGO-ESP-12-PadGPIO0)*%
X-18692700Y-12453100D02*
X-21190700Y-12453100D01*
X-23221950Y-16249650D02*
X-31883400Y-24911100D01*
X-21190700Y-12453100D02*
X-23221950Y-14484350D01*
X-23221950Y-14484350D02*
X-23221950Y-16249650D01*
X-31883400Y-24911100D02*
X-31883400Y-29038600D01*
X-31883400Y-29038600D02*
X-32145200Y-29342600D01*
%TO.N,Net-(POGO-ESP-12-PadGPIO5)*%
X-19818400Y-14116100D02*
X-20929600Y-15227300D01*
X-20929600Y-15227300D02*
X-20929600Y-16662400D01*
X-29978400Y-29038600D02*
X-30145200Y-29342600D01*
X-20929600Y-16662400D02*
X-29978400Y-25711200D01*
X-29978400Y-25711200D02*
X-29978400Y-29038600D01*
%TO.N,Net-(POGO-ESP-12-PadGPIO4)*%
X-28145200Y-29342600D02*
X-28145200Y-26570400D01*
X-28145200Y-26570400D02*
X-23177500Y-21602700D01*
X-23177500Y-21602700D02*
X-16471900Y-21602700D01*
X-16471900Y-21602700D02*
X-15087600Y-20218400D01*
X-15087600Y-20218400D02*
X-15087600Y-9702800D01*
X-15087600Y-9702800D02*
X-16337300Y-8453100D01*
X-16337300Y-8453100D02*
X-18692700Y-8453100D01*
%TO.N,Net-(POGO-ESP-12-PadGPIO14)*%
X-23945900Y-11258600D02*
X-22993400Y-11258600D01*
X-22993400Y-26498600D02*
X-22993400Y-34436100D01*
X-22993400Y-11258600D02*
X-19183400Y-7448600D01*
X-19183400Y-7448600D02*
X-15157400Y-7448600D01*
X-15157400Y-7448600D02*
X-13360400Y-9245600D01*
X-13360400Y-21894800D02*
X-15087600Y-23622000D01*
X-13360400Y-9245600D02*
X-13360400Y-21894800D01*
X-22993400Y-34436100D02*
X-31883400Y-43326100D01*
X-15087600Y-23622000D02*
X-20116800Y-23622000D01*
X-20116800Y-23622000D02*
X-22993400Y-26498600D01*
X-31883400Y-43326100D02*
X-32145200Y-43342600D01*
%TO.N,Net-(POGO-ESP-12-PadGPIO13)*%
X-26924000Y-13614400D02*
X-26873200Y-11328400D01*
X-26873200Y-11328400D02*
X-26873200Y-4013200D01*
X-26873200Y-4013200D02*
X-29819600Y-1066800D01*
X-29819600Y-1066800D02*
X-41148000Y-1066800D01*
X-41148000Y-1066800D02*
X-46278800Y-6197600D01*
X-46278800Y-6197600D02*
X-46278800Y-43535600D01*
X-46278800Y-43535600D02*
X-43129200Y-46685200D01*
X-43129200Y-46685200D02*
X-36982400Y-46685200D01*
X-36982400Y-46685200D02*
X-36145200Y-45848000D01*
X-36145200Y-45848000D02*
X-36145200Y-43342600D01*
%TO.N,Net-(POGO-ESP-12-PadADC)*%
X-38152300Y-6453100D02*
X-42367200Y-10668000D01*
X-32692700Y-6453100D02*
X-38152300Y-6453100D01*
X-42367200Y-10668000D02*
X-42367200Y-32461200D01*
X-42367200Y-32461200D02*
X-42062400Y-32766000D01*
X-33153400Y-45231100D02*
X-33153400Y-41535400D01*
%TO.N,Net-(POGO-ESP-12-PadGPIO16)*%
X-39116000Y-14122400D02*
X-39116000Y-19964400D01*
X-38404800Y-13411200D02*
X-39116000Y-14122400D01*
X-32692700Y-10453100D02*
X-35446700Y-10453100D01*
X-35446700Y-10453100D02*
X-38404800Y-13411200D01*
%TO.N,Net-(POGO-ESP-12-PadGPIO12)*%
X-29978400Y-13163600D02*
X-29978400Y-5543600D01*
X-43637200Y-7975600D02*
X-43637200Y-33528000D01*
X-29978400Y-5543600D02*
X-29921200Y-5486400D01*
X-29921200Y-5486400D02*
X-29921200Y-4622800D01*
X-29921200Y-4622800D02*
X-31394400Y-3149600D01*
X-31394400Y-3149600D02*
X-38811200Y-3149600D01*
X-38811200Y-3149600D02*
X-43637200Y-7975600D01*
X-43637200Y-33528000D02*
X-34145200Y-43020000D01*
X-34145200Y-43020000D02*
X-34145200Y-43342600D01*
%TO.N,Net-(POGO-ESP-12-PadCH_PD)*%
X-40843200Y-11734800D02*
X-40843200Y-34696400D01*
X-32692700Y-8453100D02*
X-37561500Y-8453100D01*
X-40843200Y-34696400D02*
X-35560000Y-39979600D01*
X-34251900Y-39979600D02*
X-34105900Y-39833600D01*
X-37561500Y-8453100D02*
X-40843200Y-11734800D01*
X-35560000Y-39979600D02*
X-34251900Y-39979600D01*
%TO.N,Net-(POGO-ESP-12-PadRX)*%
X-13462000Y-26060400D02*
X-13868400Y-26060400D01*
X-13868400Y-26060400D02*
X-19913600Y-26060400D01*
X-19913600Y-26060400D02*
X-21183600Y-27330400D01*
X-11531600Y-8940800D02*
X-11531600Y-24130000D01*
X-18692700Y-6453100D02*
X-14019300Y-6453100D01*
X-14019300Y-6453100D02*
X-12649200Y-7823200D01*
X-11531600Y-24130000D02*
X-13462000Y-26060400D01*
X-12649200Y-7823200D02*
X-11531600Y-8940800D01*
%TO.N,Net-(POGO-ESP-12-PadTX)*%
X-9601200Y-7315200D02*
X-9601200Y-26212800D01*
X-18692700Y-4453100D02*
X-12463300Y-4453100D01*
X-10972800Y-5943600D02*
X-9601200Y-7315200D01*
X-9601200Y-26212800D02*
X-12395200Y-29006800D01*
X-13309600Y-29006800D02*
X-20878800Y-29006800D01*
X-12463300Y-4453100D02*
X-10972800Y-5943600D01*
X-12395200Y-29006800D02*
X-13309600Y-29006800D01*
%TO.N,Net-(POGO-ESP-12-PadADC)*%
X-26168400Y-43643600D02*
X-26145200Y-43342600D01*
X-26168400Y-43643600D02*
X-26168400Y-44278600D01*
X-26168400Y-44278600D02*
X-27438400Y-45548600D01*
X-27438400Y-45548600D02*
X-32835900Y-45548600D01*
X-32835900Y-45548600D02*
X-33153400Y-45231100D01*
%TD*%
%TA.AperFunction,Conductor*%
%TO.N,Net-(POGO-ESP-12-PadGND)*%
G36*
X-30117977Y-1848513D02*
G01*
X-30105973Y-1858765D01*
X-27665165Y-4299573D01*
X-27636939Y-4354971D01*
X-27635700Y-4370708D01*
X-27635700Y-11318816D01*
X-27635725Y-11321051D01*
X-27679370Y-13285113D01*
X-27679631Y-13296845D01*
X-27685672Y-13329013D01*
X-27719498Y-13421949D01*
X-27720202Y-13427524D01*
X-27720203Y-13427527D01*
X-27737619Y-13565399D01*
X-27742366Y-13602973D01*
X-27724561Y-13784564D01*
X-27666967Y-13957699D01*
X-27572446Y-14113771D01*
X-27445697Y-14245023D01*
X-27440994Y-14248101D01*
X-27440991Y-14248103D01*
X-27297729Y-14341851D01*
X-27293019Y-14344933D01*
X-27122000Y-14408535D01*
X-27116422Y-14409279D01*
X-27116419Y-14409280D01*
X-26946718Y-14431923D01*
X-26946716Y-14431923D01*
X-26941140Y-14432667D01*
X-26823398Y-14421951D01*
X-26765031Y-14416639D01*
X-26765030Y-14416639D01*
X-26759429Y-14416129D01*
X-26677356Y-14389462D01*
X-26598987Y-14363999D01*
X-26536812Y-14363999D01*
X-26486513Y-14400544D01*
X-26467300Y-14459675D01*
X-26467300Y-14882493D01*
X-26486513Y-14941624D01*
X-26496765Y-14953628D01*
X-33646292Y-22103154D01*
X-33657791Y-22113036D01*
X-33676964Y-22127146D01*
X-33694683Y-22148003D01*
X-33712045Y-22168439D01*
X-33717578Y-22174440D01*
X-33724053Y-22180915D01*
X-33725871Y-22183212D01*
X-33725872Y-22183214D01*
X-33742065Y-22203681D01*
X-33744292Y-22206397D01*
X-33792084Y-22262651D01*
X-33794745Y-22267863D01*
X-33797985Y-22272720D01*
X-33798092Y-22272649D01*
X-33799971Y-22275575D01*
X-33799862Y-22275642D01*
X-33802936Y-22280619D01*
X-33806560Y-22285200D01*
X-33809034Y-22290493D01*
X-33809035Y-22290495D01*
X-33837820Y-22352085D01*
X-33839362Y-22355240D01*
X-33869857Y-22414961D01*
X-33872943Y-22421004D01*
X-33874332Y-22426680D01*
X-33876370Y-22432160D01*
X-33876490Y-22432115D01*
X-33877646Y-22435399D01*
X-33877524Y-22435440D01*
X-33879366Y-22440977D01*
X-33881844Y-22446279D01*
X-33883035Y-22452007D01*
X-33883036Y-22452009D01*
X-33896882Y-22518580D01*
X-33897648Y-22521969D01*
X-33915204Y-22593712D01*
X-33915900Y-22604930D01*
X-33916137Y-22604915D01*
X-33916592Y-22608789D01*
X-33916342Y-22608811D01*
X-33916862Y-22614633D01*
X-33918052Y-22620356D01*
X-33917894Y-22626199D01*
X-33917894Y-22626201D01*
X-33915937Y-22698510D01*
X-33915900Y-22701231D01*
X-33915900Y-26927467D01*
X-33935113Y-26986598D01*
X-33985413Y-27023143D01*
X-34030936Y-27027026D01*
X-34085868Y-27019061D01*
X-34085869Y-27019061D01*
X-34090607Y-27018374D01*
X-34213614Y-27024067D01*
X-34297877Y-27027967D01*
X-34297881Y-27027968D01*
X-34302666Y-27028189D01*
X-34307318Y-27029310D01*
X-34307324Y-27029311D01*
X-34426717Y-27058086D01*
X-34509042Y-27077926D01*
X-34702290Y-27165791D01*
X-34875437Y-27288613D01*
X-35022235Y-27441960D01*
X-35024830Y-27445979D01*
X-35024832Y-27445982D01*
X-35059580Y-27499797D01*
X-35107796Y-27539051D01*
X-35169876Y-27542467D01*
X-35223204Y-27507370D01*
X-35332936Y-27367674D01*
X-35332939Y-27367671D01*
X-35335894Y-27363909D01*
X-35339511Y-27360770D01*
X-35492611Y-27227917D01*
X-35492614Y-27227915D01*
X-35496230Y-27224777D01*
X-35500373Y-27222380D01*
X-35500376Y-27222378D01*
X-35675835Y-27120872D01*
X-35675839Y-27120870D01*
X-35679981Y-27118474D01*
X-35880519Y-27048836D01*
X-36035651Y-27026342D01*
X-36085868Y-27019061D01*
X-36085869Y-27019061D01*
X-36090607Y-27018374D01*
X-36213614Y-27024067D01*
X-36297877Y-27027967D01*
X-36297881Y-27027968D01*
X-36302666Y-27028189D01*
X-36307318Y-27029310D01*
X-36307324Y-27029311D01*
X-36426717Y-27058086D01*
X-36509042Y-27077926D01*
X-36702290Y-27165791D01*
X-36875437Y-27288613D01*
X-37022235Y-27441960D01*
X-37137387Y-27620299D01*
X-37139176Y-27624738D01*
X-37139177Y-27624740D01*
X-37214951Y-27812759D01*
X-37216739Y-27817196D01*
X-37217656Y-27821893D01*
X-37253598Y-28005945D01*
X-37257426Y-28025545D01*
X-37257700Y-28031147D01*
X-37257700Y-29395636D01*
X-37242598Y-29553926D01*
X-37182839Y-29757626D01*
X-37180649Y-29761879D01*
X-37180647Y-29761883D01*
X-37087835Y-29942088D01*
X-37085639Y-29946351D01*
X-37082676Y-29950123D01*
X-36957464Y-30109526D01*
X-36957461Y-30109529D01*
X-36954506Y-30113291D01*
X-36794170Y-30252423D01*
X-36790027Y-30254820D01*
X-36790024Y-30254822D01*
X-36614565Y-30356328D01*
X-36614561Y-30356330D01*
X-36610419Y-30358726D01*
X-36409881Y-30428364D01*
X-36275222Y-30447889D01*
X-36204532Y-30458139D01*
X-36204531Y-30458139D01*
X-36199793Y-30458826D01*
X-36076786Y-30453133D01*
X-35992523Y-30449233D01*
X-35992519Y-30449232D01*
X-35987734Y-30449011D01*
X-35983082Y-30447890D01*
X-35983076Y-30447889D01*
X-35863683Y-30419114D01*
X-35781358Y-30399274D01*
X-35588110Y-30311409D01*
X-35414963Y-30188587D01*
X-35268165Y-30035240D01*
X-35230820Y-29977403D01*
X-35182604Y-29938149D01*
X-35120524Y-29934733D01*
X-35067196Y-29969830D01*
X-34957464Y-30109526D01*
X-34957461Y-30109529D01*
X-34954506Y-30113291D01*
X-34794170Y-30252423D01*
X-34790027Y-30254820D01*
X-34790024Y-30254822D01*
X-34614565Y-30356328D01*
X-34614561Y-30356330D01*
X-34610419Y-30358726D01*
X-34409881Y-30428364D01*
X-34275222Y-30447889D01*
X-34204532Y-30458139D01*
X-34204531Y-30458139D01*
X-34199793Y-30458826D01*
X-34076786Y-30453133D01*
X-33992523Y-30449233D01*
X-33992519Y-30449232D01*
X-33987734Y-30449011D01*
X-33983082Y-30447890D01*
X-33983076Y-30447889D01*
X-33866706Y-30419843D01*
X-33804719Y-30424667D01*
X-33762112Y-30458015D01*
X-33761499Y-30458848D01*
X-33759173Y-30462681D01*
X-33751733Y-30471105D01*
X-33751858Y-30471215D01*
X-33749451Y-30474291D01*
X-33749299Y-30474164D01*
X-33745550Y-30478649D01*
X-33742346Y-30483535D01*
X-33738107Y-30487551D01*
X-33738105Y-30487553D01*
X-33685586Y-30537304D01*
X-33683636Y-30539202D01*
X-33103846Y-31118992D01*
X-33093964Y-31130491D01*
X-33079854Y-31149664D01*
X-33070867Y-31157299D01*
X-33038561Y-31184745D01*
X-33032560Y-31190278D01*
X-33026085Y-31196753D01*
X-33023788Y-31198571D01*
X-33023786Y-31198572D01*
X-33003319Y-31214765D01*
X-33000603Y-31216992D01*
X-32944349Y-31264784D01*
X-32939137Y-31267445D01*
X-32934280Y-31270685D01*
X-32934351Y-31270792D01*
X-32931425Y-31272671D01*
X-32931358Y-31272562D01*
X-32926381Y-31275636D01*
X-32921800Y-31279260D01*
X-32916507Y-31281734D01*
X-32916505Y-31281735D01*
X-32854931Y-31310513D01*
X-32851777Y-31312054D01*
X-32785996Y-31345643D01*
X-32780322Y-31347031D01*
X-32774840Y-31349070D01*
X-32774885Y-31349190D01*
X-32771603Y-31350345D01*
X-32771562Y-31350223D01*
X-32766021Y-31352066D01*
X-32760720Y-31354544D01*
X-32688401Y-31369587D01*
X-32685024Y-31370350D01*
X-32613288Y-31387904D01*
X-32608817Y-31388181D01*
X-32608813Y-31388182D01*
X-32602070Y-31388600D01*
X-32602085Y-31388843D01*
X-32598211Y-31389296D01*
X-32598188Y-31389042D01*
X-32592366Y-31389562D01*
X-32586643Y-31390752D01*
X-32580800Y-31390594D01*
X-32580798Y-31390594D01*
X-32508490Y-31388637D01*
X-32505769Y-31388600D01*
X-27503854Y-31388600D01*
X-27488725Y-31389744D01*
X-27465192Y-31393324D01*
X-27420399Y-31389681D01*
X-27411184Y-31388931D01*
X-27403028Y-31388600D01*
X-27393875Y-31388600D01*
X-27378760Y-31386838D01*
X-27365075Y-31385243D01*
X-27361584Y-31384897D01*
X-27341453Y-31383259D01*
X-27287974Y-31378909D01*
X-27282415Y-31377108D01*
X-27276684Y-31375963D01*
X-27276659Y-31376088D01*
X-27273256Y-31375346D01*
X-27273285Y-31375222D01*
X-27267597Y-31373878D01*
X-27261793Y-31373201D01*
X-27213675Y-31355735D01*
X-27192402Y-31348013D01*
X-27189080Y-31346872D01*
X-27177088Y-31342987D01*
X-27118825Y-31324113D01*
X-27113824Y-31321078D01*
X-27108516Y-31318648D01*
X-27108463Y-31318764D01*
X-27105319Y-31317257D01*
X-27105376Y-31317144D01*
X-27100149Y-31314527D01*
X-27094659Y-31312534D01*
X-27089775Y-31309332D01*
X-27089771Y-31309330D01*
X-27032909Y-31272050D01*
X-27029961Y-31270189D01*
X-26998717Y-31251229D01*
X-26970648Y-31234197D01*
X-26970644Y-31234194D01*
X-26966819Y-31231873D01*
X-26958395Y-31224433D01*
X-26958285Y-31224558D01*
X-26955209Y-31222151D01*
X-26955336Y-31221999D01*
X-26950851Y-31218250D01*
X-26945965Y-31215046D01*
X-26917260Y-31184745D01*
X-26892196Y-31158286D01*
X-26890298Y-31156336D01*
X-26220003Y-30486041D01*
X-26164605Y-30457815D01*
X-26153523Y-30456684D01*
X-26093223Y-30453893D01*
X-25992523Y-30449233D01*
X-25992519Y-30449232D01*
X-25987734Y-30449011D01*
X-25983082Y-30447890D01*
X-25983076Y-30447889D01*
X-25863683Y-30419114D01*
X-25781358Y-30399274D01*
X-25588110Y-30311409D01*
X-25414963Y-30188587D01*
X-25268165Y-30035240D01*
X-25230820Y-29977403D01*
X-25182604Y-29938149D01*
X-25120524Y-29934733D01*
X-25067196Y-29969830D01*
X-24957464Y-30109526D01*
X-24957461Y-30109529D01*
X-24954506Y-30113291D01*
X-24794170Y-30252423D01*
X-24790027Y-30254820D01*
X-24790024Y-30254822D01*
X-24614565Y-30356328D01*
X-24614561Y-30356330D01*
X-24610419Y-30358726D01*
X-24409881Y-30428364D01*
X-24275222Y-30447889D01*
X-24204532Y-30458139D01*
X-24204531Y-30458139D01*
X-24199793Y-30458826D01*
X-24076786Y-30453133D01*
X-23992523Y-30449233D01*
X-23992519Y-30449232D01*
X-23987734Y-30449011D01*
X-23983082Y-30447890D01*
X-23983076Y-30447889D01*
X-23880070Y-30423064D01*
X-23818083Y-30427888D01*
X-23770770Y-30468226D01*
X-23755900Y-30520864D01*
X-23755900Y-34078592D01*
X-23775113Y-34137723D01*
X-23785365Y-34149727D01*
X-31855299Y-42219661D01*
X-31910697Y-42247887D01*
X-31940869Y-42248085D01*
X-32085867Y-42227061D01*
X-32085870Y-42227061D01*
X-32090607Y-42226374D01*
X-32201881Y-42231524D01*
X-32285649Y-42235401D01*
X-32345605Y-42218943D01*
X-32384437Y-42170386D01*
X-32390900Y-42134909D01*
X-32390900Y-42058665D01*
X-32377422Y-42008365D01*
X-32329004Y-41924504D01*
X-32318873Y-41906956D01*
X-32259858Y-41725328D01*
X-32239896Y-41535400D01*
X-32259858Y-41345472D01*
X-32318873Y-41163844D01*
X-32414360Y-40998456D01*
X-32542147Y-40856534D01*
X-32696648Y-40744282D01*
X-32871112Y-40666606D01*
X-32876262Y-40665511D01*
X-32876263Y-40665511D01*
X-33052759Y-40627995D01*
X-33052764Y-40627994D01*
X-33057913Y-40626900D01*
X-33248887Y-40626900D01*
X-33254036Y-40627994D01*
X-33254041Y-40627995D01*
X-33430537Y-40665511D01*
X-33430538Y-40665511D01*
X-33435688Y-40666606D01*
X-33610152Y-40744282D01*
X-33764653Y-40856534D01*
X-33892440Y-40998456D01*
X-33987927Y-41163844D01*
X-34046942Y-41345472D01*
X-34066904Y-41535400D01*
X-34046942Y-41725328D01*
X-34025013Y-41792818D01*
X-34025013Y-41854990D01*
X-34061557Y-41905291D01*
X-34120688Y-41924504D01*
X-34179820Y-41905292D01*
X-34191824Y-41895039D01*
X-35173028Y-40913835D01*
X-35201254Y-40858437D01*
X-35191528Y-40797029D01*
X-35147564Y-40753065D01*
X-35101893Y-40742100D01*
X-34317354Y-40742100D01*
X-34302225Y-40743244D01*
X-34278692Y-40746824D01*
X-34224685Y-40742431D01*
X-34216528Y-40742100D01*
X-34207375Y-40742100D01*
X-34193585Y-40740492D01*
X-34178575Y-40738743D01*
X-34175084Y-40738397D01*
X-34154953Y-40736759D01*
X-34101474Y-40732409D01*
X-34095915Y-40730608D01*
X-34090184Y-40729463D01*
X-34090159Y-40729588D01*
X-34086756Y-40728846D01*
X-34086785Y-40728722D01*
X-34081097Y-40727378D01*
X-34075293Y-40726701D01*
X-34005902Y-40701513D01*
X-34002580Y-40700372D01*
X-33993537Y-40697442D01*
X-33932325Y-40677613D01*
X-33927324Y-40674578D01*
X-33922016Y-40672148D01*
X-33921963Y-40672264D01*
X-33918819Y-40670757D01*
X-33918876Y-40670644D01*
X-33913649Y-40668027D01*
X-33908159Y-40666034D01*
X-33903275Y-40662832D01*
X-33903271Y-40662830D01*
X-33846409Y-40625550D01*
X-33843461Y-40623689D01*
X-33780319Y-40585373D01*
X-33780196Y-40585576D01*
X-33770230Y-40579736D01*
X-33767796Y-40578945D01*
X-33611068Y-40485517D01*
X-33478934Y-40359687D01*
X-33377961Y-40207710D01*
X-33313167Y-40037139D01*
X-33287773Y-39856452D01*
X-33287454Y-39833600D01*
X-33307793Y-39652275D01*
X-33367799Y-39479961D01*
X-33464489Y-39325224D01*
X-33571861Y-39217100D01*
X-33589097Y-39199743D01*
X-33589101Y-39199740D01*
X-33593059Y-39195754D01*
X-33747117Y-39097986D01*
X-33766075Y-39091235D01*
X-33913705Y-39038666D01*
X-33919007Y-39036778D01*
X-33924595Y-39036112D01*
X-33924598Y-39036111D01*
X-34009596Y-39025976D01*
X-34100186Y-39015174D01*
X-34105781Y-39015762D01*
X-34105784Y-39015762D01*
X-34276058Y-39033658D01*
X-34276061Y-39033659D01*
X-34281649Y-39034246D01*
X-34286966Y-39036056D01*
X-34286970Y-39036057D01*
X-34449052Y-39091235D01*
X-34449054Y-39091236D01*
X-34454377Y-39093048D01*
X-34609786Y-39188656D01*
X-34613806Y-39192592D01*
X-34617878Y-39195774D01*
X-34679814Y-39217100D01*
X-35202493Y-39217100D01*
X-35261624Y-39197887D01*
X-35273628Y-39187635D01*
X-40051235Y-34410027D01*
X-40079461Y-34354629D01*
X-40080700Y-34338892D01*
X-40080700Y-20485934D01*
X-40061487Y-20426803D01*
X-40011187Y-20390258D01*
X-39949013Y-20390258D01*
X-39898713Y-20426803D01*
X-39892978Y-20435634D01*
X-39870342Y-20474840D01*
X-39855040Y-20501344D01*
X-39727253Y-20643266D01*
X-39572752Y-20755518D01*
X-39398288Y-20833194D01*
X-39393138Y-20834289D01*
X-39393137Y-20834289D01*
X-39216641Y-20871805D01*
X-39216636Y-20871806D01*
X-39211487Y-20872900D01*
X-39020513Y-20872900D01*
X-39015364Y-20871806D01*
X-39015359Y-20871805D01*
X-38838863Y-20834289D01*
X-38838862Y-20834289D01*
X-38833712Y-20833194D01*
X-38659248Y-20755518D01*
X-38504747Y-20643266D01*
X-38376960Y-20501344D01*
X-38281473Y-20335956D01*
X-38222458Y-20154328D01*
X-38202496Y-19964400D01*
X-38222458Y-19774472D01*
X-38281473Y-19592844D01*
X-38340022Y-19491434D01*
X-38353500Y-19441135D01*
X-38353500Y-14479908D01*
X-38334287Y-14420777D01*
X-38324035Y-14408773D01*
X-35160327Y-11245065D01*
X-35104929Y-11216839D01*
X-35089192Y-11215600D01*
X-34753375Y-11215600D01*
X-34694244Y-11234813D01*
X-34683809Y-11243530D01*
X-34680003Y-11247173D01*
X-34593340Y-11330135D01*
X-34589318Y-11332732D01*
X-34535503Y-11367480D01*
X-34496249Y-11415696D01*
X-34492833Y-11477776D01*
X-34527930Y-11531104D01*
X-34667626Y-11640836D01*
X-34667629Y-11640839D01*
X-34671391Y-11643794D01*
X-34674528Y-11647409D01*
X-34674530Y-11647411D01*
X-34798087Y-11789799D01*
X-34810523Y-11804130D01*
X-34812920Y-11808273D01*
X-34812922Y-11808276D01*
X-34914428Y-11983735D01*
X-34914430Y-11983739D01*
X-34916826Y-11987881D01*
X-34986464Y-12188419D01*
X-35016926Y-12398507D01*
X-35007111Y-12610566D01*
X-35005990Y-12615218D01*
X-35005989Y-12615224D01*
X-34982413Y-12713047D01*
X-34957374Y-12816942D01*
X-34869509Y-13010190D01*
X-34746687Y-13183337D01*
X-34593340Y-13330135D01*
X-34589318Y-13332732D01*
X-34535503Y-13367480D01*
X-34496249Y-13415696D01*
X-34492833Y-13477776D01*
X-34527930Y-13531104D01*
X-34667626Y-13640836D01*
X-34667629Y-13640839D01*
X-34671391Y-13643794D01*
X-34674528Y-13647409D01*
X-34674530Y-13647411D01*
X-34804601Y-13797306D01*
X-34810523Y-13804130D01*
X-34812920Y-13808273D01*
X-34812922Y-13808276D01*
X-34914428Y-13983735D01*
X-34914430Y-13983739D01*
X-34916826Y-13987881D01*
X-34986464Y-14188419D01*
X-35008711Y-14341851D01*
X-35011922Y-14363999D01*
X-35016926Y-14398507D01*
X-35007111Y-14610566D01*
X-35005990Y-14615218D01*
X-35005989Y-14615224D01*
X-34981328Y-14717548D01*
X-34957374Y-14816942D01*
X-34869509Y-15010190D01*
X-34746687Y-15183337D01*
X-34593340Y-15330135D01*
X-34589318Y-15332732D01*
X-34535503Y-15367480D01*
X-34496249Y-15415696D01*
X-34492833Y-15477776D01*
X-34527930Y-15531104D01*
X-34667626Y-15640836D01*
X-34667629Y-15640839D01*
X-34671391Y-15643794D01*
X-34674528Y-15647409D01*
X-34674530Y-15647411D01*
X-34769669Y-15757050D01*
X-34810523Y-15804130D01*
X-34812920Y-15808273D01*
X-34812922Y-15808276D01*
X-34914428Y-15983735D01*
X-34914430Y-15983739D01*
X-34916826Y-15987881D01*
X-34986464Y-16188419D01*
X-35006911Y-16329439D01*
X-35013666Y-16376027D01*
X-35016926Y-16398507D01*
X-35011872Y-16507693D01*
X-35008240Y-16586165D01*
X-35007111Y-16610566D01*
X-35005990Y-16615218D01*
X-35005989Y-16615224D01*
X-34982413Y-16713047D01*
X-34957374Y-16816942D01*
X-34869509Y-17010190D01*
X-34746687Y-17183337D01*
X-34593340Y-17330135D01*
X-34589318Y-17332732D01*
X-34535503Y-17367480D01*
X-34496249Y-17415696D01*
X-34492833Y-17477776D01*
X-34527930Y-17531104D01*
X-34667626Y-17640836D01*
X-34667629Y-17640839D01*
X-34671391Y-17643794D01*
X-34674528Y-17647409D01*
X-34674530Y-17647411D01*
X-34740003Y-17722863D01*
X-34810523Y-17804130D01*
X-34812920Y-17808273D01*
X-34812922Y-17808276D01*
X-34914428Y-17983735D01*
X-34914430Y-17983739D01*
X-34916826Y-17987881D01*
X-34986464Y-18188419D01*
X-35016926Y-18398507D01*
X-35007111Y-18610566D01*
X-35005990Y-18615218D01*
X-35005989Y-18615224D01*
X-34982413Y-18713047D01*
X-34957374Y-18816942D01*
X-34869509Y-19010190D01*
X-34746687Y-19183337D01*
X-34593340Y-19330135D01*
X-34415001Y-19445287D01*
X-34410562Y-19447076D01*
X-34410560Y-19447077D01*
X-34253979Y-19510181D01*
X-34218104Y-19524639D01*
X-34110599Y-19545633D01*
X-34013310Y-19564632D01*
X-34013307Y-19564632D01*
X-34009755Y-19565326D01*
X-34006141Y-19565503D01*
X-34006139Y-19565503D01*
X-34005854Y-19565517D01*
X-34004153Y-19565600D01*
X-32639664Y-19565600D01*
X-32637288Y-19565373D01*
X-32637281Y-19565373D01*
X-32568403Y-19558801D01*
X-32481374Y-19550498D01*
X-32476788Y-19549153D01*
X-32476785Y-19549152D01*
X-32403553Y-19527668D01*
X-32277674Y-19490739D01*
X-32273421Y-19488549D01*
X-32273417Y-19488547D01*
X-32093212Y-19395735D01*
X-32093209Y-19395733D01*
X-32088949Y-19393539D01*
X-32004017Y-19326824D01*
X-31925774Y-19265364D01*
X-31925771Y-19265361D01*
X-31922009Y-19262406D01*
X-31918870Y-19258789D01*
X-31786017Y-19105689D01*
X-31786015Y-19105686D01*
X-31782877Y-19102070D01*
X-31731982Y-19014095D01*
X-31678972Y-18922465D01*
X-31678970Y-18922461D01*
X-31676574Y-18918319D01*
X-31606936Y-18717781D01*
X-31576474Y-18507693D01*
X-31586289Y-18295634D01*
X-31587410Y-18290982D01*
X-31587411Y-18290976D01*
X-31634905Y-18093911D01*
X-31636026Y-18089258D01*
X-31723891Y-17896010D01*
X-31846713Y-17722863D01*
X-32000060Y-17576065D01*
X-32057897Y-17538720D01*
X-32097151Y-17490504D01*
X-32100567Y-17428424D01*
X-32065470Y-17375096D01*
X-31925774Y-17265364D01*
X-31925771Y-17265361D01*
X-31922009Y-17262406D01*
X-31918870Y-17258789D01*
X-31786017Y-17105689D01*
X-31786015Y-17105686D01*
X-31782877Y-17102070D01*
X-31780478Y-17097924D01*
X-31678972Y-16922465D01*
X-31678970Y-16922461D01*
X-31676574Y-16918319D01*
X-31606936Y-16717781D01*
X-31576474Y-16507693D01*
X-31583932Y-16346562D01*
X-31586067Y-16300423D01*
X-31586068Y-16300419D01*
X-31586289Y-16295634D01*
X-31587410Y-16290982D01*
X-31587411Y-16290976D01*
X-31634905Y-16093911D01*
X-31636026Y-16089258D01*
X-31723891Y-15896010D01*
X-31846713Y-15722863D01*
X-32000060Y-15576065D01*
X-32057897Y-15538720D01*
X-32097151Y-15490504D01*
X-32100567Y-15428424D01*
X-32065470Y-15375096D01*
X-31925774Y-15265364D01*
X-31925771Y-15265361D01*
X-31922009Y-15262406D01*
X-31900145Y-15237210D01*
X-31786017Y-15105689D01*
X-31786015Y-15105686D01*
X-31782877Y-15102070D01*
X-31771393Y-15082220D01*
X-31678972Y-14922465D01*
X-31678970Y-14922461D01*
X-31676574Y-14918319D01*
X-31606936Y-14717781D01*
X-31576474Y-14507693D01*
X-31585344Y-14316050D01*
X-31586067Y-14300423D01*
X-31586068Y-14300419D01*
X-31586289Y-14295634D01*
X-31587410Y-14290982D01*
X-31587411Y-14290976D01*
X-31616186Y-14171583D01*
X-31636026Y-14089258D01*
X-31723891Y-13896010D01*
X-31846713Y-13722863D01*
X-32000060Y-13576065D01*
X-32057897Y-13538720D01*
X-32097151Y-13490504D01*
X-32100567Y-13428424D01*
X-32065470Y-13375096D01*
X-31925774Y-13265364D01*
X-31925771Y-13265361D01*
X-31922009Y-13262406D01*
X-31858821Y-13189588D01*
X-31786017Y-13105689D01*
X-31786015Y-13105686D01*
X-31782877Y-13102070D01*
X-31731982Y-13014095D01*
X-31678972Y-12922465D01*
X-31678970Y-12922461D01*
X-31676574Y-12918319D01*
X-31606936Y-12717781D01*
X-31576474Y-12507693D01*
X-31586289Y-12295634D01*
X-31587410Y-12290982D01*
X-31587411Y-12290976D01*
X-31634905Y-12093911D01*
X-31636026Y-12089258D01*
X-31723891Y-11896010D01*
X-31846713Y-11722863D01*
X-32000060Y-11576065D01*
X-32004082Y-11573468D01*
X-32057897Y-11538720D01*
X-32097151Y-11490504D01*
X-32100567Y-11428424D01*
X-32065470Y-11375096D01*
X-31925774Y-11265364D01*
X-31925771Y-11265361D01*
X-31922009Y-11262406D01*
X-31912321Y-11251242D01*
X-31786017Y-11105689D01*
X-31786015Y-11105686D01*
X-31782877Y-11102070D01*
X-31780478Y-11097924D01*
X-31678972Y-10922465D01*
X-31678970Y-10922461D01*
X-31676574Y-10918319D01*
X-31606936Y-10717781D01*
X-31576474Y-10507693D01*
X-31583970Y-10345734D01*
X-31586067Y-10300423D01*
X-31586068Y-10300419D01*
X-31586289Y-10295634D01*
X-31587410Y-10290982D01*
X-31587411Y-10290976D01*
X-31634905Y-10093911D01*
X-31636026Y-10089258D01*
X-31723891Y-9896010D01*
X-31846713Y-9722863D01*
X-32000060Y-9576065D01*
X-32057897Y-9538720D01*
X-32097151Y-9490504D01*
X-32100567Y-9428424D01*
X-32065470Y-9375096D01*
X-31925774Y-9265364D01*
X-31925771Y-9265361D01*
X-31922009Y-9262406D01*
X-31918870Y-9258789D01*
X-31786017Y-9105689D01*
X-31786015Y-9105686D01*
X-31782877Y-9102070D01*
X-31780478Y-9097924D01*
X-31678972Y-8922465D01*
X-31678970Y-8922461D01*
X-31676574Y-8918319D01*
X-31606936Y-8717781D01*
X-31576474Y-8507693D01*
X-31582167Y-8384686D01*
X-31586067Y-8300423D01*
X-31586068Y-8300419D01*
X-31586289Y-8295634D01*
X-31587410Y-8290982D01*
X-31587411Y-8290976D01*
X-31634905Y-8093911D01*
X-31636026Y-8089258D01*
X-31723891Y-7896010D01*
X-31846713Y-7722863D01*
X-32000060Y-7576065D01*
X-32006046Y-7572200D01*
X-32057897Y-7538720D01*
X-32097151Y-7490504D01*
X-32100567Y-7428424D01*
X-32065470Y-7375096D01*
X-31925774Y-7265364D01*
X-31925771Y-7265361D01*
X-31922009Y-7262406D01*
X-31918706Y-7258600D01*
X-31786017Y-7105689D01*
X-31786015Y-7105686D01*
X-31782877Y-7102070D01*
X-31780478Y-7097924D01*
X-31678972Y-6922465D01*
X-31678970Y-6922461D01*
X-31676574Y-6918319D01*
X-31606936Y-6717781D01*
X-31576474Y-6507693D01*
X-31586289Y-6295634D01*
X-31587410Y-6290982D01*
X-31587411Y-6290976D01*
X-31624954Y-6135201D01*
X-31636026Y-6089258D01*
X-31723891Y-5896010D01*
X-31846713Y-5722863D01*
X-32000060Y-5576065D01*
X-32033235Y-5554644D01*
X-32057897Y-5538720D01*
X-32097151Y-5490504D01*
X-32100567Y-5428424D01*
X-32065470Y-5375096D01*
X-31925774Y-5265364D01*
X-31925771Y-5265361D01*
X-31922009Y-5262406D01*
X-31898065Y-5234813D01*
X-31786017Y-5105689D01*
X-31786015Y-5105686D01*
X-31782877Y-5102070D01*
X-31731982Y-5014095D01*
X-31678972Y-4922465D01*
X-31678970Y-4922461D01*
X-31676574Y-4918319D01*
X-31606936Y-4717781D01*
X-31576474Y-4507693D01*
X-31586289Y-4295634D01*
X-31587410Y-4290982D01*
X-31587413Y-4290962D01*
X-31576721Y-4229714D01*
X-31532070Y-4186448D01*
X-31470515Y-4177691D01*
X-31416681Y-4205657D01*
X-30713165Y-4909173D01*
X-30684939Y-4964571D01*
X-30683700Y-4980308D01*
X-30683700Y-5223913D01*
X-30693627Y-5265181D01*
X-30693248Y-5265322D01*
X-30694416Y-5268462D01*
X-30694704Y-5269662D01*
X-30697943Y-5276004D01*
X-30699332Y-5281681D01*
X-30701370Y-5287160D01*
X-30701490Y-5287115D01*
X-30702646Y-5290399D01*
X-30702524Y-5290440D01*
X-30704366Y-5295977D01*
X-30706844Y-5301279D01*
X-30708035Y-5307007D01*
X-30708036Y-5307009D01*
X-30721882Y-5373580D01*
X-30722648Y-5376969D01*
X-30740204Y-5448712D01*
X-30740900Y-5459930D01*
X-30741137Y-5459915D01*
X-30741592Y-5463789D01*
X-30741342Y-5463811D01*
X-30741862Y-5469633D01*
X-30743052Y-5475356D01*
X-30742894Y-5481199D01*
X-30742894Y-5481201D01*
X-30740937Y-5553510D01*
X-30740900Y-5556231D01*
X-30740900Y-12862750D01*
X-30746967Y-12897157D01*
X-30773898Y-12971149D01*
X-30774602Y-12976724D01*
X-30774603Y-12976727D01*
X-30779323Y-13014095D01*
X-30796766Y-13152173D01*
X-30778961Y-13333764D01*
X-30721367Y-13506899D01*
X-30626846Y-13662971D01*
X-30500097Y-13794223D01*
X-30495394Y-13797301D01*
X-30495391Y-13797303D01*
X-30352129Y-13891051D01*
X-30347419Y-13894133D01*
X-30176400Y-13957735D01*
X-30170822Y-13958479D01*
X-30170819Y-13958480D01*
X-30001118Y-13981123D01*
X-30001116Y-13981123D01*
X-29995540Y-13981867D01*
X-29904684Y-13973598D01*
X-29819431Y-13965839D01*
X-29819430Y-13965839D01*
X-29813829Y-13965329D01*
X-29640296Y-13908945D01*
X-29483568Y-13815517D01*
X-29382795Y-13719552D01*
X-29355504Y-13693563D01*
X-29355503Y-13693562D01*
X-29351434Y-13689687D01*
X-29330491Y-13658166D01*
X-29290117Y-13597397D01*
X-29250461Y-13537710D01*
X-29185667Y-13367139D01*
X-29178940Y-13319278D01*
X-29160714Y-13189588D01*
X-29160273Y-13186452D01*
X-29159954Y-13163600D01*
X-29180293Y-12982275D01*
X-29210304Y-12896094D01*
X-29215900Y-12863011D01*
X-29215900Y-5806087D01*
X-29205973Y-5764819D01*
X-29206352Y-5764678D01*
X-29205184Y-5761538D01*
X-29204896Y-5760338D01*
X-29201657Y-5753996D01*
X-29200268Y-5748319D01*
X-29198230Y-5742840D01*
X-29198110Y-5742885D01*
X-29196954Y-5739601D01*
X-29197076Y-5739560D01*
X-29195234Y-5734023D01*
X-29192756Y-5728721D01*
X-29191537Y-5722863D01*
X-29183943Y-5686350D01*
X-29177715Y-5656406D01*
X-29176952Y-5653031D01*
X-29159396Y-5581288D01*
X-29158700Y-5570070D01*
X-29158463Y-5570085D01*
X-29158008Y-5566211D01*
X-29158258Y-5566189D01*
X-29157738Y-5560367D01*
X-29156548Y-5554644D01*
X-29158535Y-5481201D01*
X-29158663Y-5476490D01*
X-29158700Y-5473769D01*
X-29158700Y-4688248D01*
X-29157556Y-4673118D01*
X-29154856Y-4655370D01*
X-29153977Y-4649592D01*
X-29158369Y-4595592D01*
X-29158700Y-4587438D01*
X-29158700Y-4578275D01*
X-29162060Y-4549458D01*
X-29162406Y-4545962D01*
X-29165133Y-4512432D01*
X-29168391Y-4472373D01*
X-29170194Y-4466807D01*
X-29171338Y-4461083D01*
X-29171211Y-4461058D01*
X-29171953Y-4457655D01*
X-29172078Y-4457685D01*
X-29173422Y-4451997D01*
X-29174099Y-4446193D01*
X-29176091Y-4440705D01*
X-29176093Y-4440697D01*
X-29199297Y-4376772D01*
X-29200437Y-4373452D01*
X-29221385Y-4308790D01*
X-29221386Y-4308789D01*
X-29223188Y-4303225D01*
X-29226222Y-4298225D01*
X-29228653Y-4292915D01*
X-29228536Y-4292862D01*
X-29230042Y-4289720D01*
X-29230156Y-4289777D01*
X-29232771Y-4284556D01*
X-29234766Y-4279059D01*
X-29237972Y-4274169D01*
X-29237974Y-4274165D01*
X-29275267Y-4217284D01*
X-29277141Y-4214315D01*
X-29315428Y-4151219D01*
X-29322868Y-4142794D01*
X-29322736Y-4142677D01*
X-29325143Y-4139604D01*
X-29325301Y-4139736D01*
X-29329050Y-4135251D01*
X-29332254Y-4130365D01*
X-29336493Y-4126349D01*
X-29336495Y-4126347D01*
X-29389014Y-4076596D01*
X-29390964Y-4074698D01*
X-30808954Y-2656708D01*
X-30818836Y-2645209D01*
X-30832946Y-2626036D01*
X-30874239Y-2590955D01*
X-30880240Y-2585422D01*
X-30886715Y-2578947D01*
X-30889014Y-2577128D01*
X-30909481Y-2560935D01*
X-30912198Y-2558707D01*
X-30920955Y-2551267D01*
X-30968451Y-2510916D01*
X-30973663Y-2508255D01*
X-30978520Y-2505015D01*
X-30978449Y-2504908D01*
X-30981375Y-2503029D01*
X-30981442Y-2503138D01*
X-30986419Y-2500064D01*
X-30991000Y-2496440D01*
X-30996293Y-2493966D01*
X-30996295Y-2493965D01*
X-31057885Y-2465180D01*
X-31061040Y-2463638D01*
X-31121598Y-2432715D01*
X-31121600Y-2432714D01*
X-31126804Y-2430057D01*
X-31132480Y-2428668D01*
X-31137960Y-2426630D01*
X-31137915Y-2426510D01*
X-31141199Y-2425354D01*
X-31141240Y-2425476D01*
X-31146777Y-2423634D01*
X-31152079Y-2421156D01*
X-31157807Y-2419965D01*
X-31157809Y-2419964D01*
X-31186520Y-2413992D01*
X-31224394Y-2406115D01*
X-31227769Y-2405352D01*
X-31281213Y-2392274D01*
X-31295159Y-2388861D01*
X-31295161Y-2388861D01*
X-31299512Y-2387796D01*
X-31303983Y-2387519D01*
X-31303987Y-2387518D01*
X-31310730Y-2387100D01*
X-31310715Y-2386863D01*
X-31314589Y-2386408D01*
X-31314611Y-2386658D01*
X-31320433Y-2386138D01*
X-31326156Y-2384948D01*
X-31331999Y-2385106D01*
X-31332001Y-2385106D01*
X-31404310Y-2387063D01*
X-31407031Y-2387100D01*
X-38745745Y-2387100D01*
X-38760874Y-2385956D01*
X-38784407Y-2382376D01*
X-38828420Y-2385956D01*
X-38838415Y-2386769D01*
X-38846571Y-2387100D01*
X-38855725Y-2387100D01*
X-38881080Y-2390056D01*
X-38884523Y-2390457D01*
X-38888012Y-2390803D01*
X-38961626Y-2396791D01*
X-38967184Y-2398592D01*
X-38972916Y-2399737D01*
X-38972941Y-2399612D01*
X-38976344Y-2400354D01*
X-38976315Y-2400478D01*
X-38982003Y-2401822D01*
X-38987807Y-2402499D01*
X-38993297Y-2404492D01*
X-38993298Y-2404492D01*
X-39057198Y-2427687D01*
X-39060520Y-2428828D01*
X-39130775Y-2451587D01*
X-39135776Y-2454622D01*
X-39141084Y-2457052D01*
X-39141137Y-2456936D01*
X-39144281Y-2458443D01*
X-39144224Y-2458556D01*
X-39149451Y-2461173D01*
X-39154941Y-2463166D01*
X-39159825Y-2466368D01*
X-39159829Y-2466370D01*
X-39216691Y-2503650D01*
X-39219639Y-2505511D01*
X-39225865Y-2509289D01*
X-39278952Y-2541503D01*
X-39278956Y-2541506D01*
X-39282781Y-2543827D01*
X-39291205Y-2551267D01*
X-39291315Y-2551142D01*
X-39294391Y-2553549D01*
X-39294264Y-2553701D01*
X-39298749Y-2557450D01*
X-39303635Y-2560654D01*
X-39307651Y-2564893D01*
X-39307653Y-2564895D01*
X-39357404Y-2617414D01*
X-39359302Y-2619364D01*
X-44130092Y-7390154D01*
X-44141591Y-7400036D01*
X-44160764Y-7414146D01*
X-44164548Y-7418599D01*
X-44164547Y-7418599D01*
X-44195845Y-7455439D01*
X-44201378Y-7461440D01*
X-44207853Y-7467915D01*
X-44209671Y-7470212D01*
X-44209672Y-7470214D01*
X-44225865Y-7490681D01*
X-44228092Y-7493397D01*
X-44275884Y-7549651D01*
X-44278545Y-7554863D01*
X-44281785Y-7559720D01*
X-44281892Y-7559649D01*
X-44283771Y-7562575D01*
X-44283662Y-7562642D01*
X-44286736Y-7567619D01*
X-44290360Y-7572200D01*
X-44292834Y-7577493D01*
X-44292835Y-7577495D01*
X-44321620Y-7639085D01*
X-44323162Y-7642240D01*
X-44346529Y-7688002D01*
X-44356743Y-7708004D01*
X-44358132Y-7713680D01*
X-44360170Y-7719160D01*
X-44360290Y-7719115D01*
X-44361446Y-7722399D01*
X-44361324Y-7722440D01*
X-44363166Y-7727977D01*
X-44365644Y-7733279D01*
X-44366835Y-7739007D01*
X-44366836Y-7739009D01*
X-44380682Y-7805580D01*
X-44381448Y-7808969D01*
X-44399004Y-7880712D01*
X-44399700Y-7891930D01*
X-44399937Y-7891915D01*
X-44400392Y-7895789D01*
X-44400142Y-7895811D01*
X-44400662Y-7901633D01*
X-44401852Y-7907356D01*
X-44401694Y-7913199D01*
X-44401694Y-7913201D01*
X-44399737Y-7985510D01*
X-44399700Y-7988231D01*
X-44399700Y-33462546D01*
X-44400844Y-33477675D01*
X-44404424Y-33501208D01*
X-44403950Y-33507034D01*
X-44400031Y-33555216D01*
X-44399700Y-33563372D01*
X-44399700Y-33572525D01*
X-44399360Y-33575439D01*
X-44396343Y-33601325D01*
X-44395997Y-33604816D01*
X-44390009Y-33678426D01*
X-44388208Y-33683985D01*
X-44387063Y-33689716D01*
X-44387188Y-33689741D01*
X-44386446Y-33693144D01*
X-44386322Y-33693115D01*
X-44384978Y-33698803D01*
X-44384301Y-33704607D01*
X-44382308Y-33710097D01*
X-44382308Y-33710098D01*
X-44359113Y-33773998D01*
X-44357972Y-33777320D01*
X-44335213Y-33847575D01*
X-44332178Y-33852576D01*
X-44329748Y-33857884D01*
X-44329864Y-33857937D01*
X-44328357Y-33861081D01*
X-44328244Y-33861024D01*
X-44325627Y-33866251D01*
X-44323634Y-33871741D01*
X-44320432Y-33876625D01*
X-44320430Y-33876629D01*
X-44283150Y-33933491D01*
X-44281289Y-33936439D01*
X-44242973Y-33999581D01*
X-44240007Y-34002939D01*
X-44235533Y-34008005D01*
X-44235658Y-34008115D01*
X-44233251Y-34011191D01*
X-44233099Y-34011064D01*
X-44229350Y-34015549D01*
X-44226146Y-34020435D01*
X-44221907Y-34024451D01*
X-44221905Y-34024453D01*
X-44169386Y-34074204D01*
X-44167436Y-34076102D01*
X-36181507Y-42062031D01*
X-36153281Y-42117429D01*
X-36163007Y-42178837D01*
X-36206971Y-42222801D01*
X-36247990Y-42233658D01*
X-36297877Y-42235967D01*
X-36297881Y-42235968D01*
X-36302666Y-42236189D01*
X-36307318Y-42237310D01*
X-36307324Y-42237311D01*
X-36426717Y-42266086D01*
X-36509042Y-42285926D01*
X-36702290Y-42373791D01*
X-36875437Y-42496613D01*
X-37022235Y-42649960D01*
X-37024832Y-42653982D01*
X-37059580Y-42707797D01*
X-37107796Y-42747051D01*
X-37169876Y-42750467D01*
X-37223204Y-42715370D01*
X-37332936Y-42575674D01*
X-37332939Y-42575671D01*
X-37335894Y-42571909D01*
X-37496230Y-42432777D01*
X-37500373Y-42430380D01*
X-37500376Y-42430378D01*
X-37675835Y-42328872D01*
X-37675839Y-42328870D01*
X-37679981Y-42326474D01*
X-37880519Y-42256836D01*
X-38040371Y-42233658D01*
X-38085868Y-42227061D01*
X-38085869Y-42227061D01*
X-38090607Y-42226374D01*
X-38213614Y-42232067D01*
X-38297877Y-42235967D01*
X-38297881Y-42235968D01*
X-38302666Y-42236189D01*
X-38307318Y-42237310D01*
X-38307324Y-42237311D01*
X-38426717Y-42266086D01*
X-38509042Y-42285926D01*
X-38702290Y-42373791D01*
X-38875437Y-42496613D01*
X-39022235Y-42649960D01*
X-39137387Y-42828299D01*
X-39139176Y-42832738D01*
X-39139177Y-42832740D01*
X-39177396Y-42927574D01*
X-39216739Y-43025196D01*
X-39217656Y-43029893D01*
X-39254734Y-43219762D01*
X-39257426Y-43233545D01*
X-39257700Y-43239147D01*
X-39257700Y-44603636D01*
X-39242598Y-44761926D01*
X-39182839Y-44965626D01*
X-39180649Y-44969879D01*
X-39180647Y-44969883D01*
X-39087835Y-45150088D01*
X-39085639Y-45154351D01*
X-39082676Y-45158123D01*
X-38957464Y-45317526D01*
X-38957461Y-45317529D01*
X-38954506Y-45321291D01*
X-38950891Y-45324428D01*
X-38950889Y-45324430D01*
X-38860027Y-45403275D01*
X-38794170Y-45460423D01*
X-38790027Y-45462820D01*
X-38790024Y-45462822D01*
X-38614565Y-45564328D01*
X-38614561Y-45564330D01*
X-38610419Y-45566726D01*
X-38409881Y-45636364D01*
X-38275222Y-45655889D01*
X-38204532Y-45666139D01*
X-38204531Y-45666139D01*
X-38199793Y-45666826D01*
X-38076786Y-45661133D01*
X-37992523Y-45657233D01*
X-37992519Y-45657232D01*
X-37987734Y-45657011D01*
X-37983082Y-45655890D01*
X-37983076Y-45655889D01*
X-37861482Y-45626584D01*
X-37781358Y-45607274D01*
X-37588110Y-45519409D01*
X-37414963Y-45396587D01*
X-37268165Y-45243240D01*
X-37230820Y-45185403D01*
X-37182604Y-45146149D01*
X-37120524Y-45142733D01*
X-37067196Y-45177830D01*
X-36957464Y-45317526D01*
X-36957461Y-45317529D01*
X-36954506Y-45321291D01*
X-36950891Y-45324428D01*
X-36950888Y-45324431D01*
X-36942366Y-45331826D01*
X-36910298Y-45385092D01*
X-36907700Y-45407806D01*
X-36907700Y-45490492D01*
X-36926913Y-45549623D01*
X-36937165Y-45561627D01*
X-37268773Y-45893235D01*
X-37324171Y-45921461D01*
X-37339908Y-45922700D01*
X-42771692Y-45922700D01*
X-42830823Y-45903487D01*
X-42842827Y-45893235D01*
X-45486835Y-43249227D01*
X-45515061Y-43193829D01*
X-45516300Y-43178092D01*
X-45516300Y-6555108D01*
X-45497087Y-6495977D01*
X-45486835Y-6483973D01*
X-40861627Y-1858765D01*
X-40806229Y-1830539D01*
X-40790492Y-1829300D01*
X-30177108Y-1829300D01*
X-30117977Y-1848513D01*
G37*
%TD.AperFunction*%
%TA.AperFunction,Conductor*%
G36*
X-12761677Y-5234813D02*
G01*
X-12749673Y-5245065D01*
X-10393165Y-7601573D01*
X-10364939Y-7656971D01*
X-10363700Y-7672708D01*
X-10363700Y-25855292D01*
X-10382913Y-25914423D01*
X-10393165Y-25926427D01*
X-12681573Y-28214835D01*
X-12736971Y-28243061D01*
X-12752708Y-28244300D01*
X-20349972Y-28244300D01*
X-20409103Y-28225087D01*
X-20417778Y-28218784D01*
X-20417780Y-28218783D01*
X-20422048Y-28215682D01*
X-20535516Y-28165163D01*
X-20581720Y-28123560D01*
X-20594647Y-28062745D01*
X-20569359Y-28005948D01*
X-20444560Y-27867344D01*
X-20349073Y-27701956D01*
X-20295051Y-27535696D01*
X-20270511Y-27495649D01*
X-19627227Y-26852365D01*
X-19571829Y-26824139D01*
X-19556092Y-26822900D01*
X-13527454Y-26822900D01*
X-13512325Y-26824044D01*
X-13488792Y-26827624D01*
X-13434785Y-26823231D01*
X-13426628Y-26822900D01*
X-13417475Y-26822900D01*
X-13403685Y-26821292D01*
X-13388675Y-26819543D01*
X-13385184Y-26819197D01*
X-13365053Y-26817559D01*
X-13311574Y-26813209D01*
X-13306015Y-26811408D01*
X-13300284Y-26810263D01*
X-13300259Y-26810388D01*
X-13296856Y-26809646D01*
X-13296885Y-26809522D01*
X-13291197Y-26808178D01*
X-13285393Y-26807501D01*
X-13216002Y-26782313D01*
X-13212680Y-26781172D01*
X-13191325Y-26774254D01*
X-13142425Y-26758413D01*
X-13137424Y-26755378D01*
X-13132116Y-26752948D01*
X-13132063Y-26753064D01*
X-13128919Y-26751557D01*
X-13128976Y-26751444D01*
X-13123749Y-26748827D01*
X-13118259Y-26746834D01*
X-13113375Y-26743632D01*
X-13113371Y-26743630D01*
X-13056509Y-26706350D01*
X-13053561Y-26704489D01*
X-13022317Y-26685529D01*
X-12994248Y-26668497D01*
X-12994244Y-26668494D01*
X-12990419Y-26666173D01*
X-12981995Y-26658733D01*
X-12981885Y-26658858D01*
X-12978809Y-26656451D01*
X-12978936Y-26656299D01*
X-12974451Y-26652550D01*
X-12969565Y-26649346D01*
X-12938165Y-26616200D01*
X-12915796Y-26592586D01*
X-12913898Y-26590636D01*
X-11038708Y-24715446D01*
X-11027209Y-24705564D01*
X-11008036Y-24691454D01*
X-10972955Y-24650161D01*
X-10967422Y-24644160D01*
X-10960947Y-24637685D01*
X-10959128Y-24635386D01*
X-10942935Y-24614919D01*
X-10940707Y-24612202D01*
X-10892916Y-24555949D01*
X-10890255Y-24550737D01*
X-10887015Y-24545880D01*
X-10886908Y-24545951D01*
X-10885029Y-24543025D01*
X-10885138Y-24542958D01*
X-10882064Y-24537981D01*
X-10878440Y-24533400D01*
X-10847187Y-24466531D01*
X-10845646Y-24463377D01*
X-10839123Y-24450602D01*
X-10812057Y-24397596D01*
X-10810669Y-24391922D01*
X-10808630Y-24386440D01*
X-10808510Y-24386485D01*
X-10807355Y-24383203D01*
X-10807477Y-24383162D01*
X-10805634Y-24377621D01*
X-10803156Y-24372320D01*
X-10788113Y-24300001D01*
X-10787344Y-24296600D01*
X-10780098Y-24266991D01*
X-10769796Y-24224888D01*
X-10769100Y-24213670D01*
X-10768857Y-24213685D01*
X-10768404Y-24209811D01*
X-10768658Y-24209788D01*
X-10768138Y-24203966D01*
X-10766948Y-24198243D01*
X-10767251Y-24187027D01*
X-10769063Y-24120090D01*
X-10769100Y-24117369D01*
X-10769100Y-9006254D01*
X-10767956Y-8991123D01*
X-10765255Y-8973369D01*
X-10764376Y-8967592D01*
X-10768769Y-8913584D01*
X-10769100Y-8905428D01*
X-10769100Y-8896275D01*
X-10772457Y-8867475D01*
X-10772803Y-8863984D01*
X-10775551Y-8830207D01*
X-10778791Y-8790374D01*
X-10780592Y-8784815D01*
X-10781737Y-8779084D01*
X-10781612Y-8779059D01*
X-10782354Y-8775656D01*
X-10782478Y-8775685D01*
X-10783822Y-8769997D01*
X-10784499Y-8764193D01*
X-10809687Y-8694802D01*
X-10810828Y-8691480D01*
X-10831786Y-8626786D01*
X-10833587Y-8621225D01*
X-10836622Y-8616224D01*
X-10839052Y-8610916D01*
X-10838936Y-8610863D01*
X-10840443Y-8607719D01*
X-10840556Y-8607776D01*
X-10843173Y-8602549D01*
X-10845166Y-8597059D01*
X-10848368Y-8592175D01*
X-10848370Y-8592171D01*
X-10885650Y-8535309D01*
X-10887511Y-8532361D01*
X-10925827Y-8469219D01*
X-10928793Y-8465862D01*
X-10928796Y-8465857D01*
X-10933268Y-8460795D01*
X-10933090Y-8460637D01*
X-10935507Y-8457577D01*
X-10935699Y-8457737D01*
X-10939453Y-8453248D01*
X-10942654Y-8448365D01*
X-10999432Y-8394579D01*
X-11001382Y-8392681D01*
X-12141515Y-7252547D01*
X-13433854Y-5960208D01*
X-13443736Y-5948709D01*
X-13457846Y-5929536D01*
X-13499139Y-5894455D01*
X-13505140Y-5888922D01*
X-13511615Y-5882447D01*
X-13513914Y-5880628D01*
X-13534381Y-5864435D01*
X-13537098Y-5862207D01*
X-13545855Y-5854767D01*
X-13593351Y-5814416D01*
X-13598563Y-5811755D01*
X-13603420Y-5808515D01*
X-13603349Y-5808408D01*
X-13606275Y-5806529D01*
X-13606342Y-5806638D01*
X-13611319Y-5803564D01*
X-13615900Y-5799940D01*
X-13621193Y-5797466D01*
X-13621195Y-5797465D01*
X-13682785Y-5768680D01*
X-13685940Y-5767138D01*
X-13690757Y-5764678D01*
X-13717556Y-5750994D01*
X-13746498Y-5736215D01*
X-13746500Y-5736214D01*
X-13751704Y-5733557D01*
X-13757380Y-5732168D01*
X-13762860Y-5730130D01*
X-13762815Y-5730010D01*
X-13766099Y-5728854D01*
X-13766140Y-5728976D01*
X-13771677Y-5727134D01*
X-13776979Y-5724656D01*
X-13782707Y-5723465D01*
X-13782709Y-5723464D01*
X-13821490Y-5715398D01*
X-13849294Y-5709615D01*
X-13852669Y-5708852D01*
X-13906113Y-5695774D01*
X-13920059Y-5692361D01*
X-13920061Y-5692361D01*
X-13924412Y-5691296D01*
X-13928883Y-5691019D01*
X-13928887Y-5691018D01*
X-13935630Y-5690600D01*
X-13935615Y-5690363D01*
X-13939489Y-5689908D01*
X-13939511Y-5690158D01*
X-13945333Y-5689638D01*
X-13951056Y-5688448D01*
X-13956899Y-5688606D01*
X-13956901Y-5688606D01*
X-14029210Y-5690563D01*
X-14031931Y-5690600D01*
X-16632025Y-5690600D01*
X-16691156Y-5671387D01*
X-16701591Y-5662670D01*
X-16724399Y-5640836D01*
X-16792060Y-5576065D01*
X-16825235Y-5554644D01*
X-16849897Y-5538720D01*
X-16889151Y-5490504D01*
X-16892567Y-5428424D01*
X-16857470Y-5375096D01*
X-16717774Y-5265364D01*
X-16717771Y-5265361D01*
X-16714009Y-5262406D01*
X-16703474Y-5250266D01*
X-16650208Y-5218198D01*
X-16627494Y-5215600D01*
X-12820808Y-5215600D01*
X-12761677Y-5234813D01*
G37*
%TD.AperFunction*%
%TA.AperFunction,Conductor*%
G36*
X-20203268Y-13234813D02*
G01*
X-20166723Y-13285113D01*
X-20166723Y-13347287D01*
X-20203268Y-13397587D01*
X-20209686Y-13401884D01*
X-20322286Y-13471156D01*
X-20326298Y-13475085D01*
X-20326302Y-13475088D01*
X-20432797Y-13579376D01*
X-20452650Y-13598818D01*
X-20551492Y-13752190D01*
X-20553415Y-13757474D01*
X-20554545Y-13760578D01*
X-20577943Y-13797306D01*
X-21008503Y-14227865D01*
X-21422492Y-14641854D01*
X-21433991Y-14651736D01*
X-21453164Y-14665846D01*
X-21456948Y-14670299D01*
X-21456947Y-14670299D01*
X-21488245Y-14707139D01*
X-21493778Y-14713140D01*
X-21500253Y-14719615D01*
X-21502071Y-14721912D01*
X-21502072Y-14721914D01*
X-21518265Y-14742381D01*
X-21520492Y-14745097D01*
X-21568284Y-14801351D01*
X-21570945Y-14806563D01*
X-21574185Y-14811420D01*
X-21574292Y-14811349D01*
X-21576171Y-14814275D01*
X-21576062Y-14814342D01*
X-21579136Y-14819319D01*
X-21582760Y-14823900D01*
X-21585234Y-14829193D01*
X-21585235Y-14829195D01*
X-21614020Y-14890785D01*
X-21615562Y-14893940D01*
X-21646040Y-14953628D01*
X-21649143Y-14959704D01*
X-21650532Y-14965380D01*
X-21652570Y-14970860D01*
X-21652690Y-14970815D01*
X-21653846Y-14974099D01*
X-21653724Y-14974140D01*
X-21655566Y-14979677D01*
X-21658044Y-14984979D01*
X-21659235Y-14990707D01*
X-21659236Y-14990709D01*
X-21663288Y-15010190D01*
X-21666616Y-15026194D01*
X-21673082Y-15057280D01*
X-21673848Y-15060669D01*
X-21691404Y-15132412D01*
X-21692100Y-15143630D01*
X-21692337Y-15143615D01*
X-21692792Y-15147489D01*
X-21692542Y-15147511D01*
X-21693062Y-15153333D01*
X-21694252Y-15159056D01*
X-21694094Y-15164899D01*
X-21694094Y-15164901D01*
X-21692137Y-15237210D01*
X-21692100Y-15239931D01*
X-21692100Y-16304892D01*
X-21711313Y-16364023D01*
X-21721565Y-16376027D01*
X-30471292Y-25125754D01*
X-30482791Y-25135636D01*
X-30501964Y-25149746D01*
X-30505748Y-25154199D01*
X-30505747Y-25154199D01*
X-30537045Y-25191039D01*
X-30542578Y-25197040D01*
X-30549053Y-25203515D01*
X-30550871Y-25205812D01*
X-30550872Y-25205814D01*
X-30567065Y-25226281D01*
X-30569292Y-25228997D01*
X-30617084Y-25285251D01*
X-30619745Y-25290463D01*
X-30622985Y-25295320D01*
X-30623092Y-25295249D01*
X-30624971Y-25298175D01*
X-30624862Y-25298242D01*
X-30627936Y-25303219D01*
X-30631560Y-25307800D01*
X-30634034Y-25313093D01*
X-30634035Y-25313095D01*
X-30662820Y-25374685D01*
X-30664360Y-25377837D01*
X-30697943Y-25443604D01*
X-30699332Y-25449280D01*
X-30701370Y-25454760D01*
X-30701490Y-25454715D01*
X-30702646Y-25457999D01*
X-30702524Y-25458040D01*
X-30704366Y-25463577D01*
X-30706844Y-25468879D01*
X-30708035Y-25474607D01*
X-30708036Y-25474609D01*
X-30721882Y-25541180D01*
X-30722648Y-25544569D01*
X-30740204Y-25616312D01*
X-30740900Y-25627530D01*
X-30741137Y-25627515D01*
X-30741592Y-25631389D01*
X-30741342Y-25631411D01*
X-30741862Y-25637233D01*
X-30743052Y-25642956D01*
X-30742894Y-25648799D01*
X-30742894Y-25648801D01*
X-30740937Y-25721110D01*
X-30740900Y-25723831D01*
X-30740900Y-27141200D01*
X-30760113Y-27200331D01*
X-30783295Y-27223252D01*
X-30875437Y-27288613D01*
X-30935629Y-27351491D01*
X-30947630Y-27364027D01*
X-31002399Y-27393455D01*
X-31064005Y-27385071D01*
X-31108918Y-27342077D01*
X-31120900Y-27294461D01*
X-31120900Y-25268608D01*
X-31101687Y-25209477D01*
X-31091435Y-25197473D01*
X-22729058Y-16835096D01*
X-22717559Y-16825214D01*
X-22698386Y-16811104D01*
X-22663305Y-16769811D01*
X-22657772Y-16763810D01*
X-22651297Y-16757335D01*
X-22647719Y-16752813D01*
X-22633285Y-16734569D01*
X-22631057Y-16731852D01*
X-22615081Y-16713047D01*
X-22583266Y-16675599D01*
X-22580605Y-16670387D01*
X-22577365Y-16665530D01*
X-22577258Y-16665601D01*
X-22575379Y-16662675D01*
X-22575488Y-16662608D01*
X-22572414Y-16657631D01*
X-22568790Y-16653050D01*
X-22537528Y-16586161D01*
X-22535988Y-16583010D01*
X-22505065Y-16522452D01*
X-22505064Y-16522450D01*
X-22502407Y-16517246D01*
X-22501018Y-16511570D01*
X-22498980Y-16506090D01*
X-22498860Y-16506135D01*
X-22497704Y-16502851D01*
X-22497826Y-16502810D01*
X-22495984Y-16497273D01*
X-22493506Y-16491971D01*
X-22478465Y-16419656D01*
X-22477702Y-16416281D01*
X-22460146Y-16344538D01*
X-22459450Y-16333320D01*
X-22459213Y-16333335D01*
X-22458758Y-16329461D01*
X-22459008Y-16329439D01*
X-22458488Y-16323617D01*
X-22457298Y-16317894D01*
X-22459413Y-16239740D01*
X-22459450Y-16237019D01*
X-22459450Y-14841858D01*
X-22440237Y-14782727D01*
X-22429985Y-14770723D01*
X-20904327Y-13245065D01*
X-20848929Y-13216839D01*
X-20833192Y-13215600D01*
X-20262399Y-13215600D01*
X-20203268Y-13234813D01*
G37*
%TD.AperFunction*%
%TA.AperFunction,Conductor*%
G36*
X-19631089Y-9072933D02*
G01*
X-19594708Y-9104364D01*
X-19541463Y-9179426D01*
X-19541453Y-9179437D01*
X-19538687Y-9183337D01*
X-19385340Y-9330135D01*
X-19381318Y-9332732D01*
X-19327503Y-9367480D01*
X-19288249Y-9415696D01*
X-19284833Y-9477776D01*
X-19319930Y-9531104D01*
X-19459626Y-9640836D01*
X-19459629Y-9640839D01*
X-19463391Y-9643794D01*
X-19466528Y-9647409D01*
X-19466530Y-9647411D01*
X-19575533Y-9773027D01*
X-19602523Y-9804130D01*
X-19604920Y-9808273D01*
X-19604922Y-9808276D01*
X-19706428Y-9983735D01*
X-19706430Y-9983739D01*
X-19708826Y-9987881D01*
X-19778464Y-10188419D01*
X-19808926Y-10398507D01*
X-19799111Y-10610566D01*
X-19797990Y-10615218D01*
X-19797989Y-10615224D01*
X-19774413Y-10713047D01*
X-19749374Y-10816942D01*
X-19661509Y-11010190D01*
X-19538687Y-11183337D01*
X-19385340Y-11330135D01*
X-19381318Y-11332732D01*
X-19327503Y-11367480D01*
X-19288249Y-11415696D01*
X-19284833Y-11477776D01*
X-19319930Y-11531104D01*
X-19459626Y-11640836D01*
X-19459629Y-11640839D01*
X-19463391Y-11643794D01*
X-19466528Y-11647409D01*
X-19466531Y-11647412D01*
X-19473926Y-11655934D01*
X-19527192Y-11688002D01*
X-19549906Y-11690600D01*
X-21125252Y-11690600D01*
X-21140382Y-11689456D01*
X-21158130Y-11686756D01*
X-21163908Y-11685877D01*
X-21217907Y-11690269D01*
X-21226062Y-11690600D01*
X-21235225Y-11690600D01*
X-21238132Y-11690939D01*
X-21238133Y-11690939D01*
X-21264042Y-11693960D01*
X-21267538Y-11694306D01*
X-21291649Y-11696267D01*
X-21341127Y-11700291D01*
X-21346693Y-11702094D01*
X-21352417Y-11703238D01*
X-21352442Y-11703111D01*
X-21355845Y-11703853D01*
X-21355815Y-11703978D01*
X-21361503Y-11705322D01*
X-21367307Y-11705999D01*
X-21372795Y-11707991D01*
X-21372803Y-11707993D01*
X-21436728Y-11731197D01*
X-21440048Y-11732337D01*
X-21487350Y-11747661D01*
X-21510275Y-11755088D01*
X-21515266Y-11758117D01*
X-21520590Y-11760554D01*
X-21520643Y-11760437D01*
X-21523775Y-11761937D01*
X-21523717Y-11762053D01*
X-21528946Y-11764672D01*
X-21534441Y-11766666D01*
X-21539331Y-11769872D01*
X-21539333Y-11769873D01*
X-21596191Y-11807151D01*
X-21599161Y-11809025D01*
X-21658450Y-11845002D01*
X-21658452Y-11845004D01*
X-21662281Y-11847327D01*
X-21670706Y-11854768D01*
X-21670809Y-11854652D01*
X-21673886Y-11857055D01*
X-21673764Y-11857201D01*
X-21678249Y-11860950D01*
X-21683135Y-11864154D01*
X-21687151Y-11868393D01*
X-21687153Y-11868395D01*
X-21736904Y-11920914D01*
X-21738802Y-11922864D01*
X-23714842Y-13898904D01*
X-23726341Y-13908786D01*
X-23745514Y-13922896D01*
X-23772024Y-13954100D01*
X-23780595Y-13964189D01*
X-23786128Y-13970190D01*
X-23792603Y-13976665D01*
X-23794421Y-13978962D01*
X-23794422Y-13978964D01*
X-23810615Y-13999431D01*
X-23812842Y-14002147D01*
X-23860634Y-14058401D01*
X-23863295Y-14063613D01*
X-23866535Y-14068470D01*
X-23866642Y-14068399D01*
X-23868521Y-14071325D01*
X-23868412Y-14071392D01*
X-23871486Y-14076369D01*
X-23875110Y-14080950D01*
X-23877584Y-14086243D01*
X-23877585Y-14086245D01*
X-23906370Y-14147835D01*
X-23907912Y-14150990D01*
X-23927024Y-14188419D01*
X-23941493Y-14216754D01*
X-23942882Y-14222430D01*
X-23944920Y-14227910D01*
X-23945040Y-14227865D01*
X-23946196Y-14231149D01*
X-23946074Y-14231190D01*
X-23947916Y-14236727D01*
X-23950394Y-14242029D01*
X-23951585Y-14247757D01*
X-23951586Y-14247759D01*
X-23957558Y-14276470D01*
X-23961543Y-14295634D01*
X-23965432Y-14314330D01*
X-23966198Y-14317719D01*
X-23983754Y-14389462D01*
X-23984450Y-14400680D01*
X-23984687Y-14400665D01*
X-23985142Y-14404539D01*
X-23984892Y-14404561D01*
X-23985412Y-14410383D01*
X-23986602Y-14416106D01*
X-23986444Y-14421949D01*
X-23986444Y-14421951D01*
X-23984487Y-14494260D01*
X-23984450Y-14496981D01*
X-23984450Y-15892142D01*
X-24003663Y-15951273D01*
X-24013915Y-15963277D01*
X-32219165Y-24168527D01*
X-32274563Y-24196753D01*
X-32335971Y-24187027D01*
X-32379935Y-24143063D01*
X-32390900Y-24097392D01*
X-32390900Y-23046108D01*
X-32371687Y-22986977D01*
X-32361435Y-22974973D01*
X-25211908Y-15825446D01*
X-25200409Y-15815564D01*
X-25181236Y-15801454D01*
X-25146155Y-15760161D01*
X-25140622Y-15754160D01*
X-25134147Y-15747685D01*
X-25132328Y-15745386D01*
X-25116135Y-15724919D01*
X-25113907Y-15722202D01*
X-25111656Y-15719552D01*
X-25066116Y-15665949D01*
X-25063455Y-15660737D01*
X-25060215Y-15655880D01*
X-25060108Y-15655951D01*
X-25058229Y-15653025D01*
X-25058338Y-15652958D01*
X-25055264Y-15647981D01*
X-25051640Y-15643400D01*
X-25020378Y-15576511D01*
X-25018838Y-15573360D01*
X-24987915Y-15512802D01*
X-24987914Y-15512800D01*
X-24985257Y-15507596D01*
X-24983868Y-15501920D01*
X-24981830Y-15496440D01*
X-24981710Y-15496485D01*
X-24980554Y-15493201D01*
X-24980676Y-15493160D01*
X-24978834Y-15487623D01*
X-24976356Y-15482321D01*
X-24961315Y-15410006D01*
X-24960552Y-15406631D01*
X-24942996Y-15334888D01*
X-24942300Y-15323670D01*
X-24942063Y-15323685D01*
X-24941608Y-15319811D01*
X-24941858Y-15319789D01*
X-24941338Y-15313967D01*
X-24940148Y-15308244D01*
X-24942263Y-15230090D01*
X-24942300Y-15227369D01*
X-24942300Y-11461173D01*
X-24923087Y-11402042D01*
X-24872787Y-11365497D01*
X-24810613Y-11365497D01*
X-24760313Y-11402042D01*
X-24746243Y-11429418D01*
X-24688867Y-11601899D01*
X-24594346Y-11757971D01*
X-24467597Y-11889223D01*
X-24462894Y-11892301D01*
X-24462891Y-11892303D01*
X-24329013Y-11979910D01*
X-24314919Y-11989133D01*
X-24143900Y-12052735D01*
X-24138322Y-12053479D01*
X-24138319Y-12053480D01*
X-23968618Y-12076123D01*
X-23968616Y-12076123D01*
X-23963040Y-12076867D01*
X-23872184Y-12068598D01*
X-23786931Y-12060839D01*
X-23786930Y-12060839D01*
X-23781329Y-12060329D01*
X-23675748Y-12026024D01*
X-23644662Y-12021100D01*
X-23058854Y-12021100D01*
X-23043725Y-12022244D01*
X-23020192Y-12025824D01*
X-22966185Y-12021431D01*
X-22958028Y-12021100D01*
X-22948875Y-12021100D01*
X-22935085Y-12019492D01*
X-22920075Y-12017743D01*
X-22916584Y-12017397D01*
X-22896453Y-12015759D01*
X-22842974Y-12011409D01*
X-22837415Y-12009608D01*
X-22831684Y-12008463D01*
X-22831659Y-12008588D01*
X-22828256Y-12007846D01*
X-22828285Y-12007722D01*
X-22822597Y-12006378D01*
X-22816793Y-12005701D01*
X-22780163Y-11992405D01*
X-22747402Y-11980513D01*
X-22744080Y-11979372D01*
X-22735037Y-11976442D01*
X-22673825Y-11956613D01*
X-22668824Y-11953578D01*
X-22663516Y-11951148D01*
X-22663463Y-11951264D01*
X-22660319Y-11949757D01*
X-22660376Y-11949644D01*
X-22655149Y-11947027D01*
X-22649659Y-11945034D01*
X-22644775Y-11941832D01*
X-22644771Y-11941830D01*
X-22587909Y-11904550D01*
X-22584961Y-11902689D01*
X-22553717Y-11883729D01*
X-22525648Y-11866697D01*
X-22525644Y-11866694D01*
X-22521819Y-11864373D01*
X-22513395Y-11856933D01*
X-22513285Y-11857058D01*
X-22510209Y-11854651D01*
X-22510336Y-11854499D01*
X-22505851Y-11850750D01*
X-22500965Y-11847546D01*
X-22462698Y-11807151D01*
X-22447196Y-11790786D01*
X-22445298Y-11788836D01*
X-19747895Y-9091433D01*
X-19692497Y-9063207D01*
X-19631089Y-9072933D01*
G37*
%TD.AperFunction*%
%TD*%
%TA.AperFunction,NonConductor*%
G36*
X-34972806Y-3931313D02*
G01*
X-34936261Y-3981613D01*
X-34936904Y-4045700D01*
X-34986464Y-4188419D01*
X-35003110Y-4303225D01*
X-35013536Y-4375130D01*
X-35016926Y-4398507D01*
X-35013507Y-4472373D01*
X-35007992Y-4591523D01*
X-35007111Y-4610566D01*
X-35005990Y-4615218D01*
X-35005989Y-4615224D01*
X-34982413Y-4713047D01*
X-34957374Y-4816942D01*
X-34869509Y-5010190D01*
X-34746687Y-5183337D01*
X-34593340Y-5330135D01*
X-34589318Y-5332732D01*
X-34535503Y-5367480D01*
X-34496249Y-5415696D01*
X-34492833Y-5477776D01*
X-34527930Y-5531104D01*
X-34667626Y-5640836D01*
X-34667629Y-5640839D01*
X-34671391Y-5643794D01*
X-34674528Y-5647409D01*
X-34674531Y-5647412D01*
X-34681926Y-5655934D01*
X-34735192Y-5688002D01*
X-34757906Y-5690600D01*
X-38086846Y-5690600D01*
X-38101975Y-5689456D01*
X-38125508Y-5685876D01*
X-38169521Y-5689456D01*
X-38179516Y-5690269D01*
X-38187672Y-5690600D01*
X-38196825Y-5690600D01*
X-38210615Y-5692208D01*
X-38225625Y-5693957D01*
X-38229116Y-5694303D01*
X-38249247Y-5695941D01*
X-38302726Y-5700291D01*
X-38308285Y-5702092D01*
X-38314016Y-5703237D01*
X-38314041Y-5703112D01*
X-38317444Y-5703854D01*
X-38317415Y-5703978D01*
X-38323103Y-5705322D01*
X-38328907Y-5705999D01*
X-38334397Y-5707992D01*
X-38334398Y-5707992D01*
X-38398298Y-5731187D01*
X-38401620Y-5732328D01*
X-38471875Y-5755087D01*
X-38476876Y-5758122D01*
X-38482184Y-5760552D01*
X-38482237Y-5760436D01*
X-38485381Y-5761943D01*
X-38485324Y-5762056D01*
X-38490551Y-5764673D01*
X-38496041Y-5766666D01*
X-38500925Y-5769868D01*
X-38500929Y-5769870D01*
X-38557791Y-5807150D01*
X-38560739Y-5809011D01*
X-38569646Y-5814416D01*
X-38620052Y-5845003D01*
X-38620056Y-5845006D01*
X-38623881Y-5847327D01*
X-38632305Y-5854767D01*
X-38632415Y-5854642D01*
X-38635491Y-5857049D01*
X-38635364Y-5857201D01*
X-38639849Y-5860950D01*
X-38644735Y-5864154D01*
X-38648751Y-5868393D01*
X-38648753Y-5868395D01*
X-38698504Y-5920914D01*
X-38700402Y-5922864D01*
X-42702965Y-9925427D01*
X-42758363Y-9953653D01*
X-42819771Y-9943927D01*
X-42863735Y-9899963D01*
X-42874700Y-9854292D01*
X-42874700Y-8333108D01*
X-42855487Y-8273977D01*
X-42845235Y-8261973D01*
X-38524827Y-3941565D01*
X-38469429Y-3913339D01*
X-38453692Y-3912100D01*
X-35031937Y-3912100D01*
X-34972806Y-3931313D01*
G37*
%TD.AperFunction*%
%TA.AperFunction,NonConductor*%
G36*
X-20255477Y-7277813D02*
G01*
X-20218932Y-7328113D01*
X-20218932Y-7390287D01*
X-20243473Y-7430335D01*
X-23279773Y-10466635D01*
X-23335171Y-10494861D01*
X-23350908Y-10496100D01*
X-23645244Y-10496100D01*
X-23678991Y-10490271D01*
X-23753705Y-10463666D01*
X-23759007Y-10461778D01*
X-23764595Y-10461112D01*
X-23764598Y-10461111D01*
X-23849596Y-10450976D01*
X-23940186Y-10440174D01*
X-23945781Y-10440762D01*
X-23945784Y-10440762D01*
X-24116058Y-10458658D01*
X-24116061Y-10458659D01*
X-24121649Y-10459246D01*
X-24126966Y-10461056D01*
X-24126970Y-10461057D01*
X-24238295Y-10498956D01*
X-24300463Y-10499824D01*
X-24351268Y-10463985D01*
X-24371305Y-10405128D01*
X-24352920Y-10345734D01*
X-24341850Y-10332588D01*
X-21297327Y-7288065D01*
X-21241929Y-7259839D01*
X-21226192Y-7258600D01*
X-20314608Y-7258600D01*
X-20255477Y-7277813D01*
G37*
%TD.AperFunction*%
%TA.AperFunction,NonConductor*%
G36*
X-34694244Y-7234813D02*
G01*
X-34683809Y-7243530D01*
X-34674390Y-7252547D01*
X-34593340Y-7330135D01*
X-34589318Y-7332732D01*
X-34535503Y-7367480D01*
X-34496249Y-7415696D01*
X-34492833Y-7477776D01*
X-34527930Y-7531104D01*
X-34667626Y-7640836D01*
X-34667629Y-7640839D01*
X-34671391Y-7643794D01*
X-34674528Y-7647409D01*
X-34674531Y-7647412D01*
X-34681926Y-7655934D01*
X-34735192Y-7688002D01*
X-34757906Y-7690600D01*
X-37496045Y-7690600D01*
X-37511174Y-7689456D01*
X-37534707Y-7685876D01*
X-37578720Y-7689456D01*
X-37588715Y-7690269D01*
X-37596871Y-7690600D01*
X-37606025Y-7690600D01*
X-37631380Y-7693556D01*
X-37634823Y-7693957D01*
X-37638312Y-7694303D01*
X-37711926Y-7700291D01*
X-37717484Y-7702092D01*
X-37723216Y-7703237D01*
X-37723241Y-7703112D01*
X-37726644Y-7703854D01*
X-37726615Y-7703978D01*
X-37732303Y-7705322D01*
X-37738107Y-7705999D01*
X-37743597Y-7707992D01*
X-37743598Y-7707992D01*
X-37807498Y-7731187D01*
X-37810820Y-7732328D01*
X-37819863Y-7735258D01*
X-37881075Y-7755087D01*
X-37886076Y-7758122D01*
X-37891384Y-7760552D01*
X-37891437Y-7760436D01*
X-37894581Y-7761943D01*
X-37894524Y-7762056D01*
X-37899751Y-7764673D01*
X-37905241Y-7766666D01*
X-37910125Y-7769868D01*
X-37910129Y-7769870D01*
X-37966991Y-7807150D01*
X-37969933Y-7809007D01*
X-38001183Y-7827971D01*
X-38029252Y-7845003D01*
X-38029256Y-7845006D01*
X-38033081Y-7847327D01*
X-38041505Y-7854767D01*
X-38041615Y-7854642D01*
X-38044691Y-7857049D01*
X-38044564Y-7857201D01*
X-38049049Y-7860950D01*
X-38053935Y-7864154D01*
X-38057951Y-7868393D01*
X-38057953Y-7868395D01*
X-38107704Y-7920914D01*
X-38109602Y-7922864D01*
X-41336092Y-11149354D01*
X-41347591Y-11159236D01*
X-41366764Y-11173346D01*
X-41371934Y-11179432D01*
X-41401845Y-11214639D01*
X-41407378Y-11220640D01*
X-41413853Y-11227115D01*
X-41415664Y-11229403D01*
X-41415672Y-11229413D01*
X-41425205Y-11241463D01*
X-41476960Y-11275916D01*
X-41539082Y-11273368D01*
X-41587842Y-11234792D01*
X-41604700Y-11179046D01*
X-41604700Y-11025508D01*
X-41585487Y-10966377D01*
X-41575235Y-10954373D01*
X-37865927Y-7245065D01*
X-37810529Y-7216839D01*
X-37794792Y-7215600D01*
X-34753375Y-7215600D01*
X-34694244Y-7234813D01*
G37*
%TD.AperFunction*%
%TA.AperFunction,NonConductor*%
G36*
X-34694244Y-9234813D02*
G01*
X-34683809Y-9243530D01*
X-34678364Y-9248742D01*
X-34593340Y-9330135D01*
X-34589318Y-9332732D01*
X-34535503Y-9367480D01*
X-34496249Y-9415696D01*
X-34492833Y-9477776D01*
X-34527930Y-9531104D01*
X-34667626Y-9640836D01*
X-34667629Y-9640839D01*
X-34671391Y-9643794D01*
X-34674528Y-9647409D01*
X-34674531Y-9647412D01*
X-34681926Y-9655934D01*
X-34735192Y-9688002D01*
X-34757906Y-9690600D01*
X-35381252Y-9690600D01*
X-35396382Y-9689456D01*
X-35414130Y-9686756D01*
X-35419908Y-9685877D01*
X-35473907Y-9690269D01*
X-35482062Y-9690600D01*
X-35491225Y-9690600D01*
X-35494130Y-9690939D01*
X-35494135Y-9690939D01*
X-35520044Y-9693960D01*
X-35523539Y-9694306D01*
X-35547085Y-9696221D01*
X-35597126Y-9700291D01*
X-35602692Y-9702094D01*
X-35608416Y-9703238D01*
X-35608441Y-9703112D01*
X-35611844Y-9703854D01*
X-35611815Y-9703978D01*
X-35617503Y-9705322D01*
X-35623307Y-9705999D01*
X-35628797Y-9707992D01*
X-35628798Y-9707992D01*
X-35692698Y-9731187D01*
X-35696020Y-9732328D01*
X-35766275Y-9755087D01*
X-35771276Y-9758122D01*
X-35776584Y-9760552D01*
X-35776637Y-9760436D01*
X-35779781Y-9761943D01*
X-35779724Y-9762056D01*
X-35784951Y-9764673D01*
X-35790441Y-9766666D01*
X-35795325Y-9769868D01*
X-35795329Y-9769870D01*
X-35852191Y-9807150D01*
X-35855139Y-9809011D01*
X-35918281Y-9847327D01*
X-35921638Y-9850293D01*
X-35921643Y-9850296D01*
X-35926705Y-9854768D01*
X-35926863Y-9854590D01*
X-35929923Y-9857007D01*
X-35929763Y-9857199D01*
X-35934252Y-9860953D01*
X-35939135Y-9864154D01*
X-35965613Y-9892105D01*
X-35992921Y-9920932D01*
X-35994819Y-9922882D01*
X-37447034Y-11375096D01*
X-39608892Y-13536954D01*
X-39620391Y-13546836D01*
X-39639564Y-13560946D01*
X-39655221Y-13579376D01*
X-39674645Y-13602239D01*
X-39680178Y-13608240D01*
X-39686653Y-13614715D01*
X-39688471Y-13617012D01*
X-39688472Y-13617014D01*
X-39704665Y-13637481D01*
X-39706892Y-13640197D01*
X-39754684Y-13696451D01*
X-39757345Y-13701663D01*
X-39760585Y-13706520D01*
X-39760692Y-13706449D01*
X-39762571Y-13709375D01*
X-39762462Y-13709442D01*
X-39765536Y-13714419D01*
X-39769160Y-13719000D01*
X-39771634Y-13724293D01*
X-39771635Y-13724295D01*
X-39800420Y-13785885D01*
X-39801960Y-13789037D01*
X-39835543Y-13854804D01*
X-39836932Y-13860480D01*
X-39838970Y-13865960D01*
X-39839090Y-13865915D01*
X-39840246Y-13869199D01*
X-39840124Y-13869240D01*
X-39841966Y-13874777D01*
X-39844444Y-13880079D01*
X-39845635Y-13885807D01*
X-39845636Y-13885809D01*
X-39859482Y-13952380D01*
X-39860248Y-13955769D01*
X-39877804Y-14027512D01*
X-39878500Y-14038730D01*
X-39878737Y-14038715D01*
X-39879192Y-14042589D01*
X-39878942Y-14042611D01*
X-39879461Y-14048433D01*
X-39880652Y-14054156D01*
X-39880628Y-14055036D01*
X-39887649Y-14071496D01*
X-39879537Y-14095358D01*
X-39878537Y-14132310D01*
X-39878500Y-14135031D01*
X-39878500Y-19441135D01*
X-39891977Y-19491433D01*
X-39892980Y-19493170D01*
X-39939183Y-19534770D01*
X-40001017Y-19541268D01*
X-40054861Y-19510181D01*
X-40080149Y-19453381D01*
X-40080700Y-19442867D01*
X-40080700Y-14098079D01*
X-40072680Y-14073398D01*
X-40080700Y-14044382D01*
X-40080700Y-12092308D01*
X-40061487Y-12033177D01*
X-40051235Y-12021173D01*
X-37275127Y-9245065D01*
X-37219729Y-9216839D01*
X-37203992Y-9215600D01*
X-34753375Y-9215600D01*
X-34694244Y-9234813D01*
G37*
%TD.AperFunction*%
%TA.AperFunction,NonConductor*%
G36*
X-12426496Y-9124242D02*
G01*
X-12323565Y-9227173D01*
X-12295339Y-9282571D01*
X-12294100Y-9298308D01*
X-12294100Y-23772492D01*
X-12313313Y-23831623D01*
X-12323565Y-23843627D01*
X-13748373Y-25268435D01*
X-13803771Y-25296661D01*
X-13819508Y-25297900D01*
X-19848152Y-25297900D01*
X-19863282Y-25296756D01*
X-19881030Y-25294056D01*
X-19886808Y-25293177D01*
X-19940807Y-25297569D01*
X-19948962Y-25297900D01*
X-19958125Y-25297900D01*
X-19961032Y-25298239D01*
X-19961033Y-25298239D01*
X-19986942Y-25301260D01*
X-19990438Y-25301606D01*
X-20014549Y-25303567D01*
X-20064027Y-25307591D01*
X-20069593Y-25309394D01*
X-20075317Y-25310538D01*
X-20075342Y-25310411D01*
X-20078745Y-25311153D01*
X-20078715Y-25311278D01*
X-20084403Y-25312622D01*
X-20090207Y-25313299D01*
X-20095696Y-25315291D01*
X-20095703Y-25315293D01*
X-20159612Y-25338491D01*
X-20162932Y-25339631D01*
X-20227610Y-25360584D01*
X-20227611Y-25360585D01*
X-20233175Y-25362387D01*
X-20238176Y-25365422D01*
X-20243486Y-25367853D01*
X-20243539Y-25367737D01*
X-20246681Y-25369243D01*
X-20246624Y-25369356D01*
X-20251851Y-25371973D01*
X-20257341Y-25373966D01*
X-20262225Y-25377168D01*
X-20262229Y-25377170D01*
X-20319091Y-25414450D01*
X-20322039Y-25416311D01*
X-20385181Y-25454627D01*
X-20388538Y-25457593D01*
X-20388543Y-25457596D01*
X-20393605Y-25462068D01*
X-20393763Y-25461890D01*
X-20396823Y-25464307D01*
X-20396663Y-25464499D01*
X-20401152Y-25468253D01*
X-20406035Y-25471454D01*
X-20459821Y-25528232D01*
X-20461719Y-25530182D01*
X-21352436Y-26420898D01*
X-21402654Y-26448165D01*
X-21408426Y-26449392D01*
X-21465888Y-26461606D01*
X-21640352Y-26539282D01*
X-21738932Y-26610905D01*
X-21759582Y-26625908D01*
X-21818713Y-26645121D01*
X-21877844Y-26625908D01*
X-21914389Y-26575608D01*
X-21914389Y-26513434D01*
X-21889848Y-26473386D01*
X-19830427Y-24413965D01*
X-19775029Y-24385739D01*
X-19759292Y-24384500D01*
X-15153054Y-24384500D01*
X-15137925Y-24385644D01*
X-15114392Y-24389224D01*
X-15060385Y-24384831D01*
X-15052228Y-24384500D01*
X-15043075Y-24384500D01*
X-15029285Y-24382892D01*
X-15014275Y-24381143D01*
X-15010784Y-24380797D01*
X-14990653Y-24379159D01*
X-14937174Y-24374809D01*
X-14931615Y-24373008D01*
X-14925884Y-24371863D01*
X-14925859Y-24371988D01*
X-14922456Y-24371246D01*
X-14922485Y-24371122D01*
X-14916797Y-24369778D01*
X-14910993Y-24369101D01*
X-14904080Y-24366592D01*
X-14841602Y-24343913D01*
X-14838280Y-24342772D01*
X-14802037Y-24331031D01*
X-14768025Y-24320013D01*
X-14763024Y-24316978D01*
X-14757716Y-24314548D01*
X-14757663Y-24314664D01*
X-14754519Y-24313157D01*
X-14754576Y-24313044D01*
X-14749349Y-24310427D01*
X-14743859Y-24308434D01*
X-14738975Y-24305232D01*
X-14738971Y-24305230D01*
X-14682109Y-24267950D01*
X-14679161Y-24266089D01*
X-14647917Y-24247129D01*
X-14619848Y-24230097D01*
X-14619844Y-24230094D01*
X-14616019Y-24227773D01*
X-14607595Y-24220333D01*
X-14607485Y-24220458D01*
X-14604409Y-24218051D01*
X-14604536Y-24217899D01*
X-14600051Y-24214150D01*
X-14595165Y-24210946D01*
X-14541396Y-24154186D01*
X-14539498Y-24152236D01*
X-12867508Y-22480246D01*
X-12856009Y-22470364D01*
X-12836836Y-22456254D01*
X-12801755Y-22414961D01*
X-12796222Y-22408960D01*
X-12789747Y-22402485D01*
X-12783560Y-22394665D01*
X-12771735Y-22379719D01*
X-12769507Y-22377002D01*
X-12759762Y-22365531D01*
X-12721716Y-22320749D01*
X-12719055Y-22315537D01*
X-12715815Y-22310680D01*
X-12715708Y-22310751D01*
X-12713829Y-22307825D01*
X-12713938Y-22307758D01*
X-12710864Y-22302781D01*
X-12707240Y-22298200D01*
X-12696665Y-22275575D01*
X-12675987Y-22231331D01*
X-12674446Y-22228177D01*
X-12643513Y-22167597D01*
X-12640857Y-22162396D01*
X-12639469Y-22156722D01*
X-12637430Y-22151240D01*
X-12637310Y-22151285D01*
X-12636155Y-22148003D01*
X-12636277Y-22147962D01*
X-12634434Y-22142421D01*
X-12631956Y-22137120D01*
X-12616913Y-22064801D01*
X-12616144Y-22061400D01*
X-12599662Y-21994044D01*
X-12598596Y-21989688D01*
X-12597900Y-21978470D01*
X-12597657Y-21978485D01*
X-12597204Y-21974611D01*
X-12597458Y-21974588D01*
X-12596938Y-21968766D01*
X-12595748Y-21963043D01*
X-12597863Y-21884890D01*
X-12597900Y-21882169D01*
X-12597900Y-9311054D01*
X-12596756Y-9295923D01*
X-12594055Y-9278169D01*
X-12593176Y-9272392D01*
X-12597569Y-9218384D01*
X-12597900Y-9210228D01*
X-12597900Y-9201075D01*
X-12597939Y-9200741D01*
X-12582310Y-9141065D01*
X-12534214Y-9101665D01*
X-12472145Y-9098059D01*
X-12426496Y-9124242D01*
G37*
%TD.AperFunction*%
%TA.AperFunction,NonConductor*%
G36*
X-16605701Y-9265723D02*
G01*
X-16590602Y-9278136D01*
X-15879565Y-9989173D01*
X-15851339Y-10044571D01*
X-15850100Y-10060308D01*
X-15850100Y-19860892D01*
X-15869313Y-19920023D01*
X-15879565Y-19932027D01*
X-16758273Y-20810735D01*
X-16813671Y-20838961D01*
X-16829408Y-20840200D01*
X-23112046Y-20840200D01*
X-23127175Y-20839056D01*
X-23150708Y-20835476D01*
X-23193553Y-20838961D01*
X-23204716Y-20839869D01*
X-23212872Y-20840200D01*
X-23222025Y-20840200D01*
X-23235815Y-20841808D01*
X-23250825Y-20843557D01*
X-23254316Y-20843903D01*
X-23274447Y-20845541D01*
X-23327926Y-20849891D01*
X-23333485Y-20851692D01*
X-23339216Y-20852837D01*
X-23339241Y-20852712D01*
X-23342644Y-20853454D01*
X-23342615Y-20853578D01*
X-23348303Y-20854922D01*
X-23354107Y-20855599D01*
X-23359597Y-20857592D01*
X-23359598Y-20857592D01*
X-23423498Y-20880787D01*
X-23426820Y-20881928D01*
X-23497075Y-20904687D01*
X-23502076Y-20907722D01*
X-23507384Y-20910152D01*
X-23507437Y-20910036D01*
X-23510581Y-20911543D01*
X-23510524Y-20911656D01*
X-23515751Y-20914273D01*
X-23521241Y-20916266D01*
X-23526125Y-20919468D01*
X-23526129Y-20919470D01*
X-23582991Y-20956750D01*
X-23585939Y-20958611D01*
X-23617183Y-20977571D01*
X-23645252Y-20994603D01*
X-23645256Y-20994606D01*
X-23649081Y-20996927D01*
X-23657505Y-21004367D01*
X-23657615Y-21004242D01*
X-23660691Y-21006649D01*
X-23660564Y-21006801D01*
X-23665049Y-21010550D01*
X-23669935Y-21013754D01*
X-23673951Y-21017993D01*
X-23673953Y-21017995D01*
X-23723704Y-21070514D01*
X-23725602Y-21072464D01*
X-28638092Y-25984954D01*
X-28649591Y-25994836D01*
X-28668764Y-26008946D01*
X-28672548Y-26013399D01*
X-28672547Y-26013399D01*
X-28703845Y-26050239D01*
X-28709378Y-26056240D01*
X-28715853Y-26062715D01*
X-28717671Y-26065012D01*
X-28717672Y-26065014D01*
X-28733865Y-26085481D01*
X-28736092Y-26088197D01*
X-28783884Y-26144451D01*
X-28786545Y-26149663D01*
X-28789785Y-26154520D01*
X-28789892Y-26154449D01*
X-28791771Y-26157375D01*
X-28791662Y-26157442D01*
X-28794736Y-26162419D01*
X-28798360Y-26167000D01*
X-28800834Y-26172293D01*
X-28800835Y-26172295D01*
X-28829620Y-26233885D01*
X-28831160Y-26237037D01*
X-28833776Y-26242160D01*
X-28861516Y-26296485D01*
X-28864743Y-26302804D01*
X-28866132Y-26308480D01*
X-28868170Y-26313960D01*
X-28868290Y-26313915D01*
X-28869446Y-26317199D01*
X-28869324Y-26317240D01*
X-28871166Y-26322777D01*
X-28873644Y-26328079D01*
X-28884318Y-26379400D01*
X-28888682Y-26400380D01*
X-28889448Y-26403769D01*
X-28898796Y-26441970D01*
X-28903333Y-26460512D01*
X-28907004Y-26475512D01*
X-28907700Y-26486730D01*
X-28907937Y-26486715D01*
X-28908392Y-26490589D01*
X-28908142Y-26490611D01*
X-28908662Y-26496433D01*
X-28909852Y-26502156D01*
X-28909694Y-26507999D01*
X-28909694Y-26508001D01*
X-28907737Y-26580310D01*
X-28907700Y-26583031D01*
X-28907700Y-27281925D01*
X-28926913Y-27341056D01*
X-28935630Y-27351491D01*
X-28944512Y-27360769D01*
X-29022235Y-27441960D01*
X-29030787Y-27455205D01*
X-29079001Y-27494458D01*
X-29141082Y-27497875D01*
X-29193314Y-27464150D01*
X-29215900Y-27400635D01*
X-29215900Y-26068708D01*
X-29196687Y-26009577D01*
X-29186435Y-25997573D01*
X-20436708Y-17247846D01*
X-20425209Y-17237964D01*
X-20406036Y-17223854D01*
X-20370955Y-17182561D01*
X-20365422Y-17176560D01*
X-20358947Y-17170085D01*
X-20357128Y-17167786D01*
X-20340935Y-17147319D01*
X-20338707Y-17144602D01*
X-20305648Y-17105689D01*
X-20290916Y-17088349D01*
X-20288255Y-17083137D01*
X-20285015Y-17078280D01*
X-20284908Y-17078351D01*
X-20283029Y-17075425D01*
X-20283138Y-17075358D01*
X-20280064Y-17070381D01*
X-20276440Y-17065800D01*
X-20248410Y-17005828D01*
X-20245187Y-16998931D01*
X-20243646Y-16995777D01*
X-20212713Y-16935197D01*
X-20210057Y-16929996D01*
X-20208669Y-16924322D01*
X-20206630Y-16918840D01*
X-20206510Y-16918885D01*
X-20205355Y-16915603D01*
X-20205477Y-16915562D01*
X-20203634Y-16910021D01*
X-20201156Y-16904720D01*
X-20186113Y-16832401D01*
X-20185344Y-16829000D01*
X-20184415Y-16825206D01*
X-20167796Y-16757288D01*
X-20167100Y-16746070D01*
X-20166857Y-16746085D01*
X-20166404Y-16742211D01*
X-20166658Y-16742188D01*
X-20166138Y-16736366D01*
X-20164948Y-16730643D01*
X-20167063Y-16652490D01*
X-20167100Y-16649769D01*
X-20167100Y-15584808D01*
X-20147887Y-15525677D01*
X-20137635Y-15513673D01*
X-19734408Y-15110446D01*
X-19679010Y-15082220D01*
X-19617602Y-15091946D01*
X-19581221Y-15123377D01*
X-19541463Y-15179426D01*
X-19541453Y-15179437D01*
X-19538687Y-15183337D01*
X-19385340Y-15330135D01*
X-19381318Y-15332732D01*
X-19327503Y-15367480D01*
X-19288249Y-15415696D01*
X-19284833Y-15477776D01*
X-19319930Y-15531104D01*
X-19459626Y-15640836D01*
X-19459629Y-15640839D01*
X-19463391Y-15643794D01*
X-19466528Y-15647409D01*
X-19466530Y-15647411D01*
X-19561669Y-15757050D01*
X-19602523Y-15804130D01*
X-19604920Y-15808273D01*
X-19604922Y-15808276D01*
X-19706428Y-15983735D01*
X-19706430Y-15983739D01*
X-19708826Y-15987881D01*
X-19778464Y-16188419D01*
X-19798911Y-16329439D01*
X-19805666Y-16376027D01*
X-19808926Y-16398507D01*
X-19803872Y-16507693D01*
X-19800240Y-16586165D01*
X-19799111Y-16610566D01*
X-19797990Y-16615218D01*
X-19797989Y-16615224D01*
X-19774413Y-16713047D01*
X-19749374Y-16816942D01*
X-19661509Y-17010190D01*
X-19538687Y-17183337D01*
X-19385340Y-17330135D01*
X-19207001Y-17445287D01*
X-19202562Y-17447076D01*
X-19202560Y-17447077D01*
X-19014541Y-17522851D01*
X-19010104Y-17524639D01*
X-18937998Y-17538720D01*
X-18805310Y-17564632D01*
X-18805307Y-17564632D01*
X-18801755Y-17565326D01*
X-18798141Y-17565503D01*
X-18798139Y-17565503D01*
X-18797854Y-17565517D01*
X-18796153Y-17565600D01*
X-17431664Y-17565600D01*
X-17429288Y-17565373D01*
X-17429281Y-17565373D01*
X-17360403Y-17558801D01*
X-17273374Y-17550498D01*
X-17268788Y-17549153D01*
X-17268785Y-17549152D01*
X-17195553Y-17527668D01*
X-17069674Y-17490739D01*
X-17065421Y-17488549D01*
X-17065417Y-17488547D01*
X-16885212Y-17395735D01*
X-16885209Y-17395733D01*
X-16880949Y-17393539D01*
X-16796017Y-17326824D01*
X-16717774Y-17265364D01*
X-16717771Y-17265361D01*
X-16714009Y-17262406D01*
X-16710870Y-17258789D01*
X-16578017Y-17105689D01*
X-16578015Y-17105686D01*
X-16574877Y-17102070D01*
X-16572478Y-17097924D01*
X-16470972Y-16922465D01*
X-16470970Y-16922461D01*
X-16468574Y-16918319D01*
X-16398936Y-16717781D01*
X-16368474Y-16507693D01*
X-16375932Y-16346562D01*
X-16378067Y-16300423D01*
X-16378068Y-16300419D01*
X-16378289Y-16295634D01*
X-16379410Y-16290982D01*
X-16379411Y-16290976D01*
X-16426905Y-16093911D01*
X-16428026Y-16089258D01*
X-16515891Y-15896010D01*
X-16638713Y-15722863D01*
X-16792060Y-15576065D01*
X-16849897Y-15538720D01*
X-16889151Y-15490504D01*
X-16892567Y-15428424D01*
X-16857470Y-15375096D01*
X-16717774Y-15265364D01*
X-16717771Y-15265361D01*
X-16714009Y-15262406D01*
X-16692145Y-15237210D01*
X-16578017Y-15105689D01*
X-16578015Y-15105686D01*
X-16574877Y-15102070D01*
X-16563393Y-15082220D01*
X-16470972Y-14922465D01*
X-16470970Y-14922461D01*
X-16468574Y-14918319D01*
X-16398936Y-14717781D01*
X-16368474Y-14507693D01*
X-16377344Y-14316050D01*
X-16378067Y-14300423D01*
X-16378068Y-14300419D01*
X-16378289Y-14295634D01*
X-16379410Y-14290982D01*
X-16379411Y-14290976D01*
X-16408186Y-14171583D01*
X-16428026Y-14089258D01*
X-16515891Y-13896010D01*
X-16638713Y-13722863D01*
X-16792060Y-13576065D01*
X-16849897Y-13538720D01*
X-16889151Y-13490504D01*
X-16892567Y-13428424D01*
X-16857470Y-13375096D01*
X-16717774Y-13265364D01*
X-16717771Y-13265361D01*
X-16714009Y-13262406D01*
X-16650821Y-13189588D01*
X-16578017Y-13105689D01*
X-16578015Y-13105686D01*
X-16574877Y-13102070D01*
X-16523982Y-13014095D01*
X-16470972Y-12922465D01*
X-16470970Y-12922461D01*
X-16468574Y-12918319D01*
X-16398936Y-12717781D01*
X-16368474Y-12507693D01*
X-16378289Y-12295634D01*
X-16379410Y-12290982D01*
X-16379411Y-12290976D01*
X-16426905Y-12093911D01*
X-16428026Y-12089258D01*
X-16515891Y-11896010D01*
X-16638713Y-11722863D01*
X-16792060Y-11576065D01*
X-16796082Y-11573468D01*
X-16849897Y-11538720D01*
X-16889151Y-11490504D01*
X-16892567Y-11428424D01*
X-16857470Y-11375096D01*
X-16717774Y-11265364D01*
X-16717771Y-11265361D01*
X-16714009Y-11262406D01*
X-16704321Y-11251242D01*
X-16578017Y-11105689D01*
X-16578015Y-11105686D01*
X-16574877Y-11102070D01*
X-16572478Y-11097924D01*
X-16470972Y-10922465D01*
X-16470970Y-10922461D01*
X-16468574Y-10918319D01*
X-16398936Y-10717781D01*
X-16368474Y-10507693D01*
X-16375970Y-10345734D01*
X-16378067Y-10300423D01*
X-16378068Y-10300419D01*
X-16378289Y-10295634D01*
X-16379410Y-10290982D01*
X-16379411Y-10290976D01*
X-16426905Y-10093911D01*
X-16428026Y-10089258D01*
X-16515891Y-9896010D01*
X-16638713Y-9722863D01*
X-16792060Y-9576065D01*
X-16849897Y-9538720D01*
X-16889151Y-9490504D01*
X-16892567Y-9428424D01*
X-16857471Y-9375097D01*
X-16723878Y-9270158D01*
X-16665511Y-9248742D01*
X-16605701Y-9265723D01*
G37*
%TD.AperFunction*%
%TA.AperFunction,NonConductor*%
G36*
X-14159148Y-9525190D02*
G01*
X-14152365Y-9531973D01*
X-14124139Y-9587371D01*
X-14122900Y-9603108D01*
X-14122900Y-9679722D01*
X-14134424Y-9715189D01*
X-14134145Y-9715464D01*
X-14122900Y-9761681D01*
X-14122900Y-20242721D01*
X-14130919Y-20267402D01*
X-14122900Y-20296417D01*
X-14122900Y-21537292D01*
X-14142113Y-21596423D01*
X-14152365Y-21608427D01*
X-15373973Y-22830035D01*
X-15429371Y-22858261D01*
X-15445108Y-22859500D01*
X-20051346Y-22859500D01*
X-20066475Y-22858356D01*
X-20090008Y-22854776D01*
X-20132853Y-22858261D01*
X-20144016Y-22859169D01*
X-20152172Y-22859500D01*
X-20161325Y-22859500D01*
X-20175115Y-22861108D01*
X-20190125Y-22862857D01*
X-20193616Y-22863203D01*
X-20213747Y-22864841D01*
X-20267226Y-22869191D01*
X-20272785Y-22870992D01*
X-20278516Y-22872137D01*
X-20278541Y-22872012D01*
X-20281944Y-22872754D01*
X-20281915Y-22872878D01*
X-20287603Y-22874222D01*
X-20293407Y-22874899D01*
X-20298897Y-22876892D01*
X-20298898Y-22876892D01*
X-20362798Y-22900087D01*
X-20366120Y-22901228D01*
X-20436375Y-22923987D01*
X-20441376Y-22927022D01*
X-20446684Y-22929452D01*
X-20446737Y-22929336D01*
X-20449881Y-22930843D01*
X-20449824Y-22930956D01*
X-20455051Y-22933573D01*
X-20460541Y-22935566D01*
X-20465425Y-22938768D01*
X-20465429Y-22938770D01*
X-20522291Y-22976050D01*
X-20525239Y-22977911D01*
X-20540179Y-22986977D01*
X-20584552Y-23013903D01*
X-20584556Y-23013906D01*
X-20588381Y-23016227D01*
X-20596805Y-23023667D01*
X-20596915Y-23023542D01*
X-20599991Y-23025949D01*
X-20599864Y-23026101D01*
X-20604349Y-23029850D01*
X-20609235Y-23033054D01*
X-20613251Y-23037293D01*
X-20613253Y-23037295D01*
X-20663004Y-23089814D01*
X-20664902Y-23091764D01*
X-23486292Y-25913154D01*
X-23497791Y-25923036D01*
X-23516964Y-25937146D01*
X-23520748Y-25941599D01*
X-23520747Y-25941599D01*
X-23552045Y-25978439D01*
X-23557578Y-25984440D01*
X-23564053Y-25990915D01*
X-23565871Y-25993212D01*
X-23565872Y-25993214D01*
X-23582065Y-26013681D01*
X-23584292Y-26016397D01*
X-23632084Y-26072651D01*
X-23634745Y-26077863D01*
X-23637985Y-26082720D01*
X-23638092Y-26082649D01*
X-23639971Y-26085575D01*
X-23639862Y-26085642D01*
X-23642936Y-26090619D01*
X-23646560Y-26095200D01*
X-23649034Y-26100493D01*
X-23649035Y-26100495D01*
X-23677820Y-26162085D01*
X-23679360Y-26165237D01*
X-23712943Y-26231004D01*
X-23714332Y-26236680D01*
X-23716370Y-26242160D01*
X-23716490Y-26242115D01*
X-23717646Y-26245399D01*
X-23717524Y-26245440D01*
X-23719366Y-26250977D01*
X-23721844Y-26256279D01*
X-23734523Y-26317240D01*
X-23736882Y-26328580D01*
X-23737648Y-26331969D01*
X-23755204Y-26403712D01*
X-23755900Y-26414930D01*
X-23756137Y-26414915D01*
X-23756592Y-26418789D01*
X-23756342Y-26418811D01*
X-23756862Y-26424633D01*
X-23758052Y-26430356D01*
X-23757894Y-26436199D01*
X-23757894Y-26436201D01*
X-23755937Y-26508510D01*
X-23755900Y-26511231D01*
X-23755900Y-26951613D01*
X-23775113Y-27010744D01*
X-23825413Y-27047289D01*
X-23879162Y-27049307D01*
X-23880519Y-27048836D01*
X-23885250Y-27048150D01*
X-23885254Y-27048149D01*
X-24085868Y-27019061D01*
X-24085869Y-27019061D01*
X-24090607Y-27018374D01*
X-24213614Y-27024067D01*
X-24297877Y-27027967D01*
X-24297881Y-27027968D01*
X-24302666Y-27028189D01*
X-24307318Y-27029310D01*
X-24307324Y-27029311D01*
X-24426717Y-27058086D01*
X-24509042Y-27077926D01*
X-24702290Y-27165791D01*
X-24875437Y-27288613D01*
X-25022235Y-27441960D01*
X-25024830Y-27445979D01*
X-25024832Y-27445982D01*
X-25059580Y-27499797D01*
X-25107796Y-27539051D01*
X-25169876Y-27542467D01*
X-25223204Y-27507370D01*
X-25332936Y-27367674D01*
X-25332939Y-27367671D01*
X-25335894Y-27363909D01*
X-25339511Y-27360770D01*
X-25492611Y-27227917D01*
X-25492614Y-27227915D01*
X-25496230Y-27224777D01*
X-25500373Y-27222380D01*
X-25500376Y-27222378D01*
X-25675835Y-27120872D01*
X-25675839Y-27120870D01*
X-25679981Y-27118474D01*
X-25880519Y-27048836D01*
X-26035651Y-27026342D01*
X-26085868Y-27019061D01*
X-26085869Y-27019061D01*
X-26090607Y-27018374D01*
X-26213614Y-27024067D01*
X-26297877Y-27027967D01*
X-26297881Y-27027968D01*
X-26302666Y-27028189D01*
X-26307318Y-27029310D01*
X-26307324Y-27029311D01*
X-26426717Y-27058086D01*
X-26509042Y-27077926D01*
X-26702290Y-27165791D01*
X-26875437Y-27288613D01*
X-27022235Y-27441960D01*
X-27024830Y-27445979D01*
X-27024832Y-27445982D01*
X-27059580Y-27499797D01*
X-27107796Y-27539051D01*
X-27169876Y-27542467D01*
X-27223204Y-27507370D01*
X-27332936Y-27367674D01*
X-27332939Y-27367671D01*
X-27335894Y-27363909D01*
X-27339511Y-27360770D01*
X-27339512Y-27360769D01*
X-27348034Y-27353374D01*
X-27380102Y-27300108D01*
X-27382700Y-27277394D01*
X-27382700Y-26927908D01*
X-27363487Y-26868777D01*
X-27353235Y-26856773D01*
X-22891127Y-22394665D01*
X-22835729Y-22366439D01*
X-22819992Y-22365200D01*
X-16537354Y-22365200D01*
X-16522225Y-22366344D01*
X-16498692Y-22369924D01*
X-16444685Y-22365531D01*
X-16436528Y-22365200D01*
X-16427375Y-22365200D01*
X-16413585Y-22363592D01*
X-16398575Y-22361843D01*
X-16395084Y-22361497D01*
X-16374953Y-22359859D01*
X-16321474Y-22355509D01*
X-16315915Y-22353708D01*
X-16310184Y-22352563D01*
X-16310159Y-22352688D01*
X-16306756Y-22351946D01*
X-16306785Y-22351822D01*
X-16301097Y-22350478D01*
X-16295293Y-22349801D01*
X-16225902Y-22324613D01*
X-16222580Y-22323472D01*
X-16183312Y-22310751D01*
X-16152325Y-22300713D01*
X-16147324Y-22297678D01*
X-16142016Y-22295248D01*
X-16141963Y-22295364D01*
X-16138819Y-22293857D01*
X-16138876Y-22293744D01*
X-16133649Y-22291127D01*
X-16128159Y-22289134D01*
X-16123275Y-22285932D01*
X-16123271Y-22285930D01*
X-16066409Y-22248650D01*
X-16063461Y-22246789D01*
X-16032217Y-22227829D01*
X-16004148Y-22210797D01*
X-16004144Y-22210794D01*
X-16000319Y-22208473D01*
X-15991895Y-22201033D01*
X-15991785Y-22201158D01*
X-15988709Y-22198751D01*
X-15988836Y-22198599D01*
X-15984351Y-22194850D01*
X-15979465Y-22191646D01*
X-15963165Y-22174440D01*
X-15925696Y-22134886D01*
X-15923798Y-22132936D01*
X-14594708Y-20803846D01*
X-14583209Y-20793964D01*
X-14564036Y-20779854D01*
X-14528955Y-20738561D01*
X-14523422Y-20732560D01*
X-14516947Y-20726085D01*
X-14515128Y-20723786D01*
X-14498935Y-20703319D01*
X-14496707Y-20700602D01*
X-14448916Y-20644349D01*
X-14446255Y-20639137D01*
X-14443015Y-20634280D01*
X-14442908Y-20634351D01*
X-14441029Y-20631425D01*
X-14441138Y-20631358D01*
X-14438064Y-20626381D01*
X-14434440Y-20621800D01*
X-14403187Y-20554931D01*
X-14401646Y-20551777D01*
X-14370713Y-20491197D01*
X-14368057Y-20485996D01*
X-14366669Y-20480322D01*
X-14364630Y-20474840D01*
X-14364510Y-20474885D01*
X-14363355Y-20471603D01*
X-14363477Y-20471562D01*
X-14361634Y-20466021D01*
X-14359156Y-20460720D01*
X-14344113Y-20388401D01*
X-14343344Y-20385000D01*
X-14326862Y-20317644D01*
X-14325796Y-20313288D01*
X-14325100Y-20302070D01*
X-14324857Y-20302085D01*
X-14324404Y-20298211D01*
X-14324658Y-20298188D01*
X-14324139Y-20292366D01*
X-14322948Y-20286643D01*
X-14322972Y-20285763D01*
X-14315951Y-20269304D01*
X-14324063Y-20245442D01*
X-14325063Y-20208490D01*
X-14325100Y-20205769D01*
X-14325100Y-9768254D01*
X-14323956Y-9753123D01*
X-14322956Y-9746550D01*
X-14310920Y-9722567D01*
X-14323769Y-9687878D01*
X-14324769Y-9675584D01*
X-14325100Y-9667428D01*
X-14325100Y-9658275D01*
X-14328457Y-9629475D01*
X-14328803Y-9625983D01*
X-14330552Y-9604481D01*
X-14316196Y-9543987D01*
X-14269025Y-9503484D01*
X-14207055Y-9498443D01*
X-14159148Y-9525190D01*
G37*
%TD.AperFunction*%
%TA.AperFunction,NonConductor*%
G36*
X-42133677Y-809613D02*
G01*
X-42097132Y-859913D01*
X-42097132Y-922087D01*
X-42121673Y-962135D01*
X-46771692Y-5612154D01*
X-46783191Y-5622036D01*
X-46802364Y-5636146D01*
X-46806148Y-5640599D01*
X-46806147Y-5640599D01*
X-46837445Y-5677439D01*
X-46842978Y-5683440D01*
X-46849453Y-5689915D01*
X-46851271Y-5692212D01*
X-46851272Y-5692214D01*
X-46867465Y-5712681D01*
X-46869692Y-5715397D01*
X-46917484Y-5771651D01*
X-46920145Y-5776863D01*
X-46923385Y-5781720D01*
X-46923492Y-5781649D01*
X-46925371Y-5784575D01*
X-46925262Y-5784642D01*
X-46928336Y-5789619D01*
X-46931960Y-5794200D01*
X-46934434Y-5799493D01*
X-46934435Y-5799495D01*
X-46963220Y-5861085D01*
X-46964762Y-5864240D01*
X-46994205Y-5921901D01*
X-46998343Y-5930004D01*
X-46999732Y-5935680D01*
X-47001770Y-5941160D01*
X-47001890Y-5941115D01*
X-47003046Y-5944399D01*
X-47002924Y-5944440D01*
X-47004766Y-5949977D01*
X-47007244Y-5955279D01*
X-47008435Y-5961007D01*
X-47008436Y-5961009D01*
X-47022282Y-6027580D01*
X-47023048Y-6030969D01*
X-47036126Y-6084413D01*
X-47038450Y-6093911D01*
X-47040604Y-6102712D01*
X-47041300Y-6113930D01*
X-47041537Y-6113915D01*
X-47041992Y-6117789D01*
X-47041742Y-6117811D01*
X-47042262Y-6123633D01*
X-47043452Y-6129356D01*
X-47043294Y-6135199D01*
X-47043294Y-6135201D01*
X-47041337Y-6207510D01*
X-47041300Y-6210231D01*
X-47041300Y-43470146D01*
X-47042444Y-43485275D01*
X-47046024Y-43508808D01*
X-47045550Y-43514634D01*
X-47041631Y-43562816D01*
X-47041300Y-43570972D01*
X-47041300Y-43580125D01*
X-47040960Y-43583039D01*
X-47037943Y-43608925D01*
X-47037597Y-43612416D01*
X-47031609Y-43686026D01*
X-47029808Y-43691585D01*
X-47028663Y-43697316D01*
X-47028788Y-43697341D01*
X-47028046Y-43700744D01*
X-47027922Y-43700715D01*
X-47026578Y-43706403D01*
X-47025901Y-43712207D01*
X-47023908Y-43717697D01*
X-47023908Y-43717698D01*
X-47000713Y-43781598D01*
X-46999572Y-43784920D01*
X-46976813Y-43855175D01*
X-46973778Y-43860176D01*
X-46971348Y-43865484D01*
X-46971464Y-43865537D01*
X-46969957Y-43868681D01*
X-46969844Y-43868624D01*
X-46967227Y-43873851D01*
X-46965234Y-43879341D01*
X-46962032Y-43884225D01*
X-46962030Y-43884229D01*
X-46924750Y-43941091D01*
X-46922889Y-43944039D01*
X-46884573Y-44007181D01*
X-46881607Y-44010539D01*
X-46877133Y-44015605D01*
X-46877258Y-44015715D01*
X-46874851Y-44018791D01*
X-46874699Y-44018664D01*
X-46870950Y-44023149D01*
X-46867746Y-44028035D01*
X-46863507Y-44032051D01*
X-46863505Y-44032053D01*
X-46810986Y-44081804D01*
X-46809036Y-44083702D01*
X-43714646Y-47178092D01*
X-43704764Y-47189591D01*
X-43690654Y-47208764D01*
X-43681667Y-47216399D01*
X-43649361Y-47243845D01*
X-43643360Y-47249378D01*
X-43636885Y-47255853D01*
X-43634588Y-47257671D01*
X-43634586Y-47257672D01*
X-43614119Y-47273865D01*
X-43611403Y-47276092D01*
X-43555149Y-47323884D01*
X-43549937Y-47326545D01*
X-43545080Y-47329785D01*
X-43545151Y-47329892D01*
X-43542225Y-47331771D01*
X-43542158Y-47331662D01*
X-43537181Y-47334736D01*
X-43532600Y-47338360D01*
X-43527307Y-47340834D01*
X-43527305Y-47340835D01*
X-43465715Y-47369620D01*
X-43462560Y-47371162D01*
X-43402002Y-47402085D01*
X-43402000Y-47402086D01*
X-43396796Y-47404743D01*
X-43391120Y-47406132D01*
X-43385640Y-47408170D01*
X-43385685Y-47408290D01*
X-43382401Y-47409446D01*
X-43382360Y-47409324D01*
X-43376823Y-47411166D01*
X-43371521Y-47413644D01*
X-43365793Y-47414835D01*
X-43365791Y-47414836D01*
X-43337080Y-47420808D01*
X-43299206Y-47428685D01*
X-43295831Y-47429448D01*
X-43242387Y-47442526D01*
X-43228441Y-47445939D01*
X-43228439Y-47445939D01*
X-43224088Y-47447004D01*
X-43219617Y-47447281D01*
X-43219613Y-47447282D01*
X-43212870Y-47447700D01*
X-43212885Y-47447937D01*
X-43209011Y-47448392D01*
X-43208989Y-47448142D01*
X-43203167Y-47448662D01*
X-43197444Y-47449852D01*
X-43191601Y-47449694D01*
X-43191599Y-47449694D01*
X-43119290Y-47447737D01*
X-43116569Y-47447700D01*
X-37047854Y-47447700D01*
X-37032725Y-47448844D01*
X-37009192Y-47452424D01*
X-36955185Y-47448031D01*
X-36947028Y-47447700D01*
X-36937875Y-47447700D01*
X-36922769Y-47445939D01*
X-36909075Y-47444343D01*
X-36905584Y-47443997D01*
X-36885453Y-47442359D01*
X-36831974Y-47438009D01*
X-36826415Y-47436208D01*
X-36820684Y-47435063D01*
X-36820659Y-47435188D01*
X-36817256Y-47434446D01*
X-36817285Y-47434322D01*
X-36811597Y-47432978D01*
X-36805793Y-47432301D01*
X-36754394Y-47413644D01*
X-36736402Y-47407113D01*
X-36733080Y-47405972D01*
X-36721081Y-47402085D01*
X-36662825Y-47383213D01*
X-36657824Y-47380178D01*
X-36652516Y-47377748D01*
X-36652463Y-47377864D01*
X-36649319Y-47376357D01*
X-36649376Y-47376244D01*
X-36644149Y-47373627D01*
X-36638659Y-47371634D01*
X-36633775Y-47368432D01*
X-36633771Y-47368430D01*
X-36576909Y-47331150D01*
X-36573961Y-47329289D01*
X-36542717Y-47310329D01*
X-36514648Y-47293297D01*
X-36514644Y-47293294D01*
X-36510819Y-47290973D01*
X-36502395Y-47283533D01*
X-36502285Y-47283658D01*
X-36499209Y-47281251D01*
X-36499336Y-47281099D01*
X-36494851Y-47277350D01*
X-36489965Y-47274146D01*
X-36461260Y-47243845D01*
X-36436196Y-47217386D01*
X-36434298Y-47215436D01*
X-35652308Y-46433446D01*
X-35640809Y-46423564D01*
X-35621636Y-46409454D01*
X-35586555Y-46368161D01*
X-35581022Y-46362160D01*
X-35574547Y-46355685D01*
X-35572728Y-46353386D01*
X-35556535Y-46332919D01*
X-35554307Y-46330202D01*
X-35539773Y-46313094D01*
X-35506516Y-46273949D01*
X-35503855Y-46268737D01*
X-35500615Y-46263880D01*
X-35500508Y-46263951D01*
X-35498629Y-46261025D01*
X-35498738Y-46260958D01*
X-35495664Y-46255981D01*
X-35492040Y-46251400D01*
X-35487302Y-46241264D01*
X-35460787Y-46184531D01*
X-35459246Y-46181377D01*
X-35440493Y-46144651D01*
X-35425657Y-46115596D01*
X-35424269Y-46109922D01*
X-35422230Y-46104440D01*
X-35422110Y-46104485D01*
X-35420955Y-46101203D01*
X-35421077Y-46101162D01*
X-35419234Y-46095621D01*
X-35416756Y-46090320D01*
X-35401713Y-46018001D01*
X-35400944Y-46014600D01*
X-35384462Y-45947244D01*
X-35383396Y-45942888D01*
X-35382700Y-45931670D01*
X-35382457Y-45931685D01*
X-35382004Y-45927811D01*
X-35382258Y-45927788D01*
X-35381738Y-45921966D01*
X-35380548Y-45916243D01*
X-35382663Y-45838090D01*
X-35382700Y-45835369D01*
X-35382700Y-45403275D01*
X-35363487Y-45344144D01*
X-35354770Y-45333709D01*
X-35339278Y-45317526D01*
X-35268165Y-45243240D01*
X-35230820Y-45185403D01*
X-35182604Y-45146149D01*
X-35120524Y-45142733D01*
X-35067196Y-45177830D01*
X-34957464Y-45317526D01*
X-34957461Y-45317529D01*
X-34954506Y-45321291D01*
X-34950891Y-45324428D01*
X-34950889Y-45324430D01*
X-34860027Y-45403275D01*
X-34794170Y-45460423D01*
X-34790027Y-45462820D01*
X-34790024Y-45462822D01*
X-34614565Y-45564328D01*
X-34614561Y-45564330D01*
X-34610419Y-45566726D01*
X-34409881Y-45636364D01*
X-34275222Y-45655889D01*
X-34204532Y-45666139D01*
X-34204531Y-45666139D01*
X-34199793Y-45666826D01*
X-34076786Y-45661133D01*
X-33992523Y-45657233D01*
X-33992519Y-45657232D01*
X-33987734Y-45657011D01*
X-33983081Y-45655890D01*
X-33983077Y-45655889D01*
X-33883960Y-45632001D01*
X-33821973Y-45636825D01*
X-33774387Y-45677611D01*
X-33761499Y-45698848D01*
X-33759173Y-45702681D01*
X-33756207Y-45706039D01*
X-33751733Y-45711105D01*
X-33751858Y-45711215D01*
X-33749451Y-45714291D01*
X-33749299Y-45714164D01*
X-33745550Y-45718649D01*
X-33742346Y-45723535D01*
X-33738107Y-45727551D01*
X-33738105Y-45727553D01*
X-33685586Y-45777304D01*
X-33683636Y-45779202D01*
X-33421346Y-46041492D01*
X-33411464Y-46052991D01*
X-33397354Y-46072164D01*
X-33388367Y-46079799D01*
X-33356061Y-46107245D01*
X-33350060Y-46112778D01*
X-33343585Y-46119253D01*
X-33341288Y-46121071D01*
X-33341286Y-46121072D01*
X-33320819Y-46137265D01*
X-33318103Y-46139492D01*
X-33261849Y-46187284D01*
X-33256637Y-46189945D01*
X-33251780Y-46193185D01*
X-33251851Y-46193292D01*
X-33248925Y-46195171D01*
X-33248858Y-46195062D01*
X-33243881Y-46198136D01*
X-33239300Y-46201760D01*
X-33234007Y-46204234D01*
X-33234005Y-46204235D01*
X-33172431Y-46233013D01*
X-33169277Y-46234554D01*
X-33103496Y-46268143D01*
X-33097822Y-46269531D01*
X-33092340Y-46271570D01*
X-33092385Y-46271690D01*
X-33089103Y-46272845D01*
X-33089062Y-46272723D01*
X-33083521Y-46274566D01*
X-33078220Y-46277044D01*
X-33005901Y-46292087D01*
X-33002524Y-46292850D01*
X-32930788Y-46310404D01*
X-32926317Y-46310681D01*
X-32926313Y-46310682D01*
X-32919570Y-46311100D01*
X-32919585Y-46311343D01*
X-32915711Y-46311796D01*
X-32915688Y-46311542D01*
X-32909866Y-46312062D01*
X-32904143Y-46313252D01*
X-32898300Y-46313094D01*
X-32898298Y-46313094D01*
X-32825990Y-46311137D01*
X-32823269Y-46311100D01*
X-27503854Y-46311100D01*
X-27488725Y-46312244D01*
X-27465192Y-46315824D01*
X-27420399Y-46312181D01*
X-27411184Y-46311431D01*
X-27403028Y-46311100D01*
X-27393875Y-46311100D01*
X-27378760Y-46309338D01*
X-27365075Y-46307743D01*
X-27361584Y-46307397D01*
X-27341453Y-46305759D01*
X-27287974Y-46301409D01*
X-27282415Y-46299608D01*
X-27276684Y-46298463D01*
X-27276659Y-46298588D01*
X-27273256Y-46297846D01*
X-27273285Y-46297722D01*
X-27267597Y-46296378D01*
X-27261793Y-46295701D01*
X-27213675Y-46278235D01*
X-27192402Y-46270513D01*
X-27189080Y-46269372D01*
X-27163107Y-46260958D01*
X-27118825Y-46246613D01*
X-27113824Y-46243578D01*
X-27108516Y-46241148D01*
X-27108463Y-46241264D01*
X-27105319Y-46239757D01*
X-27105376Y-46239644D01*
X-27100149Y-46237027D01*
X-27094659Y-46235034D01*
X-27089775Y-46231832D01*
X-27089771Y-46231830D01*
X-27032909Y-46194550D01*
X-27029961Y-46192689D01*
X-26998717Y-46173729D01*
X-26970648Y-46156697D01*
X-26970644Y-46156694D01*
X-26966819Y-46154373D01*
X-26958395Y-46146933D01*
X-26958285Y-46147058D01*
X-26955209Y-46144651D01*
X-26955336Y-46144499D01*
X-26950851Y-46140750D01*
X-26945965Y-46137546D01*
X-26930098Y-46120797D01*
X-26892196Y-46080786D01*
X-26890298Y-46078836D01*
X-26478682Y-45667220D01*
X-26423284Y-45638994D01*
X-26393112Y-45638796D01*
X-26204533Y-45666139D01*
X-26204530Y-45666139D01*
X-26199793Y-45666826D01*
X-26076786Y-45661133D01*
X-25992523Y-45657233D01*
X-25992519Y-45657232D01*
X-25987734Y-45657011D01*
X-25983082Y-45655890D01*
X-25983076Y-45655889D01*
X-25861482Y-45626584D01*
X-25781358Y-45607274D01*
X-25588110Y-45519409D01*
X-25414963Y-45396587D01*
X-25268165Y-45243240D01*
X-25230820Y-45185403D01*
X-25182604Y-45146149D01*
X-25120524Y-45142733D01*
X-25067196Y-45177830D01*
X-24957464Y-45317526D01*
X-24957461Y-45317529D01*
X-24954506Y-45321291D01*
X-24950891Y-45324428D01*
X-24950889Y-45324430D01*
X-24860027Y-45403275D01*
X-24794170Y-45460423D01*
X-24790027Y-45462820D01*
X-24790024Y-45462822D01*
X-24614565Y-45564328D01*
X-24614561Y-45564330D01*
X-24610419Y-45566726D01*
X-24409881Y-45636364D01*
X-24275222Y-45655889D01*
X-24204532Y-45666139D01*
X-24204531Y-45666139D01*
X-24199793Y-45666826D01*
X-24076786Y-45661133D01*
X-23992523Y-45657233D01*
X-23992519Y-45657232D01*
X-23987734Y-45657011D01*
X-23983082Y-45655890D01*
X-23983076Y-45655889D01*
X-23861482Y-45626584D01*
X-23781358Y-45607274D01*
X-23588110Y-45519409D01*
X-23414963Y-45396587D01*
X-23268165Y-45243240D01*
X-23153013Y-45064901D01*
X-23143660Y-45041695D01*
X-23075449Y-44872441D01*
X-23075449Y-44872439D01*
X-23073661Y-44868004D01*
X-23032974Y-44659655D01*
X-23032700Y-44654053D01*
X-23032700Y-43289564D01*
X-23047802Y-43131274D01*
X-23107561Y-42927574D01*
X-23109751Y-42923321D01*
X-23109753Y-42923317D01*
X-23202565Y-42743112D01*
X-23202567Y-42743109D01*
X-23204761Y-42738849D01*
X-23277300Y-42646502D01*
X-23332936Y-42575674D01*
X-23332939Y-42575671D01*
X-23335894Y-42571909D01*
X-23496230Y-42432777D01*
X-23500373Y-42430380D01*
X-23500376Y-42430378D01*
X-23675835Y-42328872D01*
X-23675839Y-42328870D01*
X-23679981Y-42326474D01*
X-23880519Y-42256836D01*
X-24040371Y-42233658D01*
X-24085868Y-42227061D01*
X-24085869Y-42227061D01*
X-24090607Y-42226374D01*
X-24213614Y-42232067D01*
X-24297877Y-42235967D01*
X-24297881Y-42235968D01*
X-24302666Y-42236189D01*
X-24307318Y-42237310D01*
X-24307324Y-42237311D01*
X-24426717Y-42266086D01*
X-24509042Y-42285926D01*
X-24702290Y-42373791D01*
X-24875437Y-42496613D01*
X-25022235Y-42649960D01*
X-25024832Y-42653982D01*
X-25059580Y-42707797D01*
X-25107796Y-42747051D01*
X-25169876Y-42750467D01*
X-25223204Y-42715370D01*
X-25332936Y-42575674D01*
X-25332939Y-42575671D01*
X-25335894Y-42571909D01*
X-25496230Y-42432777D01*
X-25500373Y-42430380D01*
X-25500376Y-42430378D01*
X-25675835Y-42328872D01*
X-25675839Y-42328870D01*
X-25679981Y-42326474D01*
X-25880519Y-42256836D01*
X-26040371Y-42233658D01*
X-26085868Y-42227061D01*
X-26085869Y-42227061D01*
X-26090607Y-42226374D01*
X-26213614Y-42232067D01*
X-26297877Y-42235967D01*
X-26297881Y-42235968D01*
X-26302666Y-42236189D01*
X-26307318Y-42237310D01*
X-26307324Y-42237311D01*
X-26426717Y-42266086D01*
X-26509042Y-42285926D01*
X-26702290Y-42373791D01*
X-26875437Y-42496613D01*
X-27022235Y-42649960D01*
X-27024832Y-42653982D01*
X-27059580Y-42707797D01*
X-27107796Y-42747051D01*
X-27169876Y-42750467D01*
X-27223204Y-42715370D01*
X-27332936Y-42575674D01*
X-27332939Y-42575671D01*
X-27335894Y-42571909D01*
X-27496230Y-42432777D01*
X-27500373Y-42430380D01*
X-27500376Y-42430378D01*
X-27675835Y-42328872D01*
X-27675839Y-42328870D01*
X-27679981Y-42326474D01*
X-27880519Y-42256836D01*
X-28040371Y-42233658D01*
X-28085868Y-42227061D01*
X-28085869Y-42227061D01*
X-28090607Y-42226374D01*
X-28213614Y-42232067D01*
X-28297877Y-42235967D01*
X-28297881Y-42235968D01*
X-28302666Y-42236189D01*
X-28307318Y-42237310D01*
X-28307324Y-42237311D01*
X-28426717Y-42266086D01*
X-28509042Y-42285926D01*
X-28702290Y-42373791D01*
X-28875437Y-42496613D01*
X-29022235Y-42649960D01*
X-29024832Y-42653982D01*
X-29059580Y-42707797D01*
X-29107796Y-42747051D01*
X-29169876Y-42750467D01*
X-29223204Y-42715370D01*
X-29332936Y-42575674D01*
X-29332939Y-42575671D01*
X-29335894Y-42571909D01*
X-29496230Y-42432777D01*
X-29500373Y-42430380D01*
X-29500376Y-42430378D01*
X-29601619Y-42371808D01*
X-29646079Y-42346087D01*
X-29687640Y-42299848D01*
X-29694085Y-42238008D01*
X-29666837Y-42187875D01*
X-22500508Y-35021546D01*
X-22489009Y-35011664D01*
X-22469836Y-34997554D01*
X-22434755Y-34956261D01*
X-22429222Y-34950260D01*
X-22422747Y-34943785D01*
X-22420928Y-34941486D01*
X-22404735Y-34921019D01*
X-22402507Y-34918302D01*
X-22354716Y-34862049D01*
X-22352055Y-34856837D01*
X-22348815Y-34851980D01*
X-22348708Y-34852051D01*
X-22346829Y-34849125D01*
X-22346938Y-34849058D01*
X-22343864Y-34844081D01*
X-22340240Y-34839500D01*
X-22308987Y-34772631D01*
X-22307446Y-34769477D01*
X-22276513Y-34708897D01*
X-22273857Y-34703696D01*
X-22272469Y-34698022D01*
X-22270430Y-34692540D01*
X-22270310Y-34692585D01*
X-22269155Y-34689303D01*
X-22269277Y-34689262D01*
X-22267434Y-34683721D01*
X-22264956Y-34678420D01*
X-22249913Y-34606101D01*
X-22249144Y-34602700D01*
X-22232662Y-34535344D01*
X-22231596Y-34530988D01*
X-22230900Y-34519770D01*
X-22230657Y-34519785D01*
X-22230204Y-34515911D01*
X-22230458Y-34515888D01*
X-22229938Y-34510066D01*
X-22228748Y-34504343D01*
X-22230863Y-34426190D01*
X-22230900Y-34423469D01*
X-22230900Y-27682271D01*
X-22211687Y-27623140D01*
X-22161387Y-27586595D01*
X-22099213Y-27586595D01*
X-22048913Y-27623140D01*
X-22034624Y-27651184D01*
X-22018127Y-27701956D01*
X-21922640Y-27867344D01*
X-21794853Y-28009266D01*
X-21640352Y-28121518D01*
X-21635533Y-28123663D01*
X-21635534Y-28123663D01*
X-21526884Y-28172037D01*
X-21480680Y-28213640D01*
X-21467753Y-28274455D01*
X-21493041Y-28331252D01*
X-21617840Y-28469856D01*
X-21713327Y-28635244D01*
X-21772342Y-28816872D01*
X-21792304Y-29006800D01*
X-21772342Y-29196728D01*
X-21713327Y-29378356D01*
X-21617840Y-29543744D01*
X-21490053Y-29685666D01*
X-21485786Y-29688766D01*
X-21485785Y-29688767D01*
X-21473136Y-29697957D01*
X-21335552Y-29797918D01*
X-21161088Y-29875594D01*
X-21155938Y-29876689D01*
X-21155937Y-29876689D01*
X-20979441Y-29914205D01*
X-20979436Y-29914206D01*
X-20974287Y-29915300D01*
X-20783313Y-29915300D01*
X-20778164Y-29914206D01*
X-20778159Y-29914205D01*
X-20601663Y-29876689D01*
X-20601662Y-29876689D01*
X-20596512Y-29875594D01*
X-20422048Y-29797918D01*
X-20409103Y-29788513D01*
X-20349972Y-29769300D01*
X-12460654Y-29769300D01*
X-12445525Y-29770444D01*
X-12421992Y-29774024D01*
X-12367985Y-29769631D01*
X-12359828Y-29769300D01*
X-12350675Y-29769300D01*
X-12336885Y-29767692D01*
X-12321875Y-29765943D01*
X-12318384Y-29765597D01*
X-12298253Y-29763959D01*
X-12244774Y-29759609D01*
X-12239215Y-29757808D01*
X-12233484Y-29756663D01*
X-12233459Y-29756788D01*
X-12230056Y-29756046D01*
X-12230085Y-29755922D01*
X-12224397Y-29754578D01*
X-12218593Y-29753901D01*
X-12149202Y-29728713D01*
X-12145880Y-29727572D01*
X-12136837Y-29724642D01*
X-12075625Y-29704813D01*
X-12070624Y-29701778D01*
X-12065316Y-29699348D01*
X-12065263Y-29699464D01*
X-12062119Y-29697957D01*
X-12062176Y-29697844D01*
X-12056949Y-29695227D01*
X-12051459Y-29693234D01*
X-12046575Y-29690032D01*
X-12046571Y-29690030D01*
X-11989709Y-29652750D01*
X-11986761Y-29650889D01*
X-11955517Y-29631929D01*
X-11927448Y-29614897D01*
X-11927444Y-29614894D01*
X-11923619Y-29612573D01*
X-11915195Y-29605133D01*
X-11915085Y-29605258D01*
X-11912009Y-29602851D01*
X-11912136Y-29602699D01*
X-11907651Y-29598950D01*
X-11902765Y-29595746D01*
X-11857219Y-29547667D01*
X-11848996Y-29538986D01*
X-11847098Y-29537036D01*
X-9108308Y-26798246D01*
X-9096809Y-26788364D01*
X-9077636Y-26774254D01*
X-9042555Y-26732961D01*
X-9037022Y-26726960D01*
X-9030547Y-26720485D01*
X-9018605Y-26705391D01*
X-9012535Y-26697719D01*
X-9010307Y-26695002D01*
X-8983295Y-26663207D01*
X-8962516Y-26638749D01*
X-8959855Y-26633537D01*
X-8956615Y-26628680D01*
X-8956508Y-26628751D01*
X-8954629Y-26625825D01*
X-8954738Y-26625758D01*
X-8951664Y-26620781D01*
X-8948040Y-26616200D01*
X-8943762Y-26607048D01*
X-8916787Y-26549331D01*
X-8915246Y-26546177D01*
X-8886862Y-26490589D01*
X-8881657Y-26480396D01*
X-8880269Y-26474722D01*
X-8878230Y-26469240D01*
X-8878110Y-26469285D01*
X-8876955Y-26466003D01*
X-8877077Y-26465962D01*
X-8875234Y-26460421D01*
X-8872756Y-26455120D01*
X-8857713Y-26382801D01*
X-8856944Y-26379400D01*
X-8840462Y-26312044D01*
X-8839396Y-26307688D01*
X-8838700Y-26296470D01*
X-8838457Y-26296485D01*
X-8838004Y-26292611D01*
X-8838258Y-26292588D01*
X-8837738Y-26286766D01*
X-8836548Y-26281043D01*
X-8837511Y-26245440D01*
X-8838663Y-26202890D01*
X-8838700Y-26200169D01*
X-8838700Y-7380648D01*
X-8837556Y-7365518D01*
X-8834856Y-7347770D01*
X-8833977Y-7341992D01*
X-8838369Y-7287992D01*
X-8838700Y-7279838D01*
X-8838700Y-7270675D01*
X-8842060Y-7241858D01*
X-8842406Y-7238362D01*
X-8847917Y-7170603D01*
X-8848391Y-7164773D01*
X-8850194Y-7159207D01*
X-8851338Y-7153483D01*
X-8851211Y-7153458D01*
X-8851953Y-7150055D01*
X-8852078Y-7150085D01*
X-8853422Y-7144397D01*
X-8854099Y-7138593D01*
X-8856091Y-7133105D01*
X-8856093Y-7133097D01*
X-8879297Y-7069172D01*
X-8880437Y-7065852D01*
X-8901385Y-7001190D01*
X-8901386Y-7001189D01*
X-8903188Y-6995625D01*
X-8906222Y-6990625D01*
X-8908653Y-6985315D01*
X-8908536Y-6985262D01*
X-8910042Y-6982120D01*
X-8910156Y-6982177D01*
X-8912771Y-6976956D01*
X-8914766Y-6971459D01*
X-8917972Y-6966569D01*
X-8917974Y-6966565D01*
X-8955267Y-6909684D01*
X-8957141Y-6906715D01*
X-8995428Y-6843619D01*
X-9002868Y-6835194D01*
X-9002736Y-6835077D01*
X-9005143Y-6832004D01*
X-9005301Y-6832136D01*
X-9009050Y-6827651D01*
X-9012254Y-6822765D01*
X-9016493Y-6818749D01*
X-9016495Y-6818747D01*
X-9069014Y-6768996D01*
X-9070964Y-6767098D01*
X-11877854Y-3960208D01*
X-11887736Y-3948709D01*
X-11901846Y-3929536D01*
X-11943139Y-3894455D01*
X-11949140Y-3888922D01*
X-11955615Y-3882447D01*
X-11957914Y-3880628D01*
X-11978381Y-3864435D01*
X-11981098Y-3862207D01*
X-11995505Y-3849967D01*
X-12037351Y-3814416D01*
X-12042563Y-3811755D01*
X-12047420Y-3808515D01*
X-12047349Y-3808408D01*
X-12050275Y-3806529D01*
X-12050342Y-3806638D01*
X-12055319Y-3803564D01*
X-12059900Y-3799940D01*
X-12065193Y-3797466D01*
X-12065195Y-3797465D01*
X-12126785Y-3768680D01*
X-12129940Y-3767138D01*
X-12190498Y-3736215D01*
X-12190500Y-3736214D01*
X-12195704Y-3733557D01*
X-12201380Y-3732168D01*
X-12206860Y-3730130D01*
X-12206815Y-3730010D01*
X-12210099Y-3728854D01*
X-12210140Y-3728976D01*
X-12215677Y-3727134D01*
X-12220979Y-3724656D01*
X-12226707Y-3723465D01*
X-12226709Y-3723464D01*
X-12255420Y-3717492D01*
X-12293294Y-3709615D01*
X-12296669Y-3708852D01*
X-12358894Y-3693625D01*
X-12364059Y-3692361D01*
X-12364061Y-3692361D01*
X-12368412Y-3691296D01*
X-12372883Y-3691019D01*
X-12372887Y-3691018D01*
X-12379630Y-3690600D01*
X-12379615Y-3690363D01*
X-12383489Y-3689908D01*
X-12383511Y-3690158D01*
X-12389333Y-3689638D01*
X-12395056Y-3688448D01*
X-12400899Y-3688606D01*
X-12400901Y-3688606D01*
X-12473210Y-3690563D01*
X-12475931Y-3690600D01*
X-16632025Y-3690600D01*
X-16691156Y-3671387D01*
X-16701591Y-3662670D01*
X-16724399Y-3640836D01*
X-16792060Y-3576065D01*
X-16970399Y-3460913D01*
X-16974838Y-3459124D01*
X-16974840Y-3459123D01*
X-17162859Y-3383349D01*
X-17162861Y-3383349D01*
X-17167296Y-3381561D01*
X-17274801Y-3360567D01*
X-17372090Y-3341568D01*
X-17372093Y-3341568D01*
X-17375645Y-3340874D01*
X-17379259Y-3340697D01*
X-17379261Y-3340697D01*
X-17379546Y-3340683D01*
X-17381247Y-3340600D01*
X-18745736Y-3340600D01*
X-18748112Y-3340827D01*
X-18748119Y-3340827D01*
X-18816997Y-3347399D01*
X-18904026Y-3355702D01*
X-18908612Y-3357047D01*
X-18908615Y-3357048D01*
X-18981847Y-3378532D01*
X-19107726Y-3415461D01*
X-19111979Y-3417651D01*
X-19111983Y-3417653D01*
X-19292188Y-3510465D01*
X-19292191Y-3510467D01*
X-19296451Y-3512661D01*
X-19300223Y-3515624D01*
X-19459626Y-3640836D01*
X-19459629Y-3640839D01*
X-19463391Y-3643794D01*
X-19466528Y-3647409D01*
X-19466530Y-3647411D01*
X-19598887Y-3799940D01*
X-19602523Y-3804130D01*
X-19604920Y-3808273D01*
X-19604922Y-3808276D01*
X-19706428Y-3983735D01*
X-19706430Y-3983739D01*
X-19708826Y-3987881D01*
X-19778464Y-4188419D01*
X-19795110Y-4303225D01*
X-19805536Y-4375130D01*
X-19808926Y-4398507D01*
X-19805507Y-4472373D01*
X-19799992Y-4591523D01*
X-19799111Y-4610566D01*
X-19797990Y-4615218D01*
X-19797989Y-4615224D01*
X-19774413Y-4713047D01*
X-19749374Y-4816942D01*
X-19661509Y-5010190D01*
X-19538687Y-5183337D01*
X-19385340Y-5330135D01*
X-19381318Y-5332732D01*
X-19327503Y-5367480D01*
X-19288249Y-5415696D01*
X-19284833Y-5477776D01*
X-19319930Y-5531104D01*
X-19459621Y-5640832D01*
X-19459625Y-5640836D01*
X-19463391Y-5643794D01*
X-19466535Y-5647417D01*
X-19466537Y-5647419D01*
X-19511239Y-5698933D01*
X-19564504Y-5731002D01*
X-19587220Y-5733600D01*
X-21518244Y-5733600D01*
X-21533374Y-5732456D01*
X-21551129Y-5729755D01*
X-21556907Y-5728876D01*
X-21610918Y-5733269D01*
X-21619073Y-5733600D01*
X-21628225Y-5733600D01*
X-21631132Y-5733939D01*
X-21631133Y-5733939D01*
X-21657016Y-5736957D01*
X-21660512Y-5737303D01*
X-21728302Y-5742816D01*
X-21728305Y-5742817D01*
X-21734126Y-5743290D01*
X-21739684Y-5745090D01*
X-21745417Y-5746236D01*
X-21745442Y-5746110D01*
X-21748845Y-5746852D01*
X-21748815Y-5746978D01*
X-21754501Y-5748322D01*
X-21760307Y-5748999D01*
X-21765798Y-5750992D01*
X-21765806Y-5750994D01*
X-21829710Y-5774190D01*
X-21833029Y-5775330D01*
X-21861772Y-5784642D01*
X-21903274Y-5798087D01*
X-21908275Y-5801122D01*
X-21913583Y-5803552D01*
X-21913636Y-5803436D01*
X-21916780Y-5804942D01*
X-21916723Y-5805056D01*
X-21921947Y-5807672D01*
X-21927441Y-5809666D01*
X-21932325Y-5812868D01*
X-21932335Y-5812873D01*
X-21989203Y-5850158D01*
X-21992151Y-5852019D01*
X-22055280Y-5890327D01*
X-22063705Y-5897767D01*
X-22063915Y-5897529D01*
X-22066963Y-5899963D01*
X-22066764Y-5900201D01*
X-22071249Y-5903950D01*
X-22076135Y-5907154D01*
X-22080151Y-5911393D01*
X-22080153Y-5911395D01*
X-22129904Y-5963914D01*
X-22131802Y-5965864D01*
X-25938965Y-9773027D01*
X-25994363Y-9801253D01*
X-26055771Y-9791527D01*
X-26099735Y-9747563D01*
X-26110700Y-9701892D01*
X-26110700Y-4078654D01*
X-26109556Y-4063523D01*
X-26106855Y-4045769D01*
X-26105976Y-4039992D01*
X-26110369Y-3985984D01*
X-26110700Y-3977828D01*
X-26110700Y-3968675D01*
X-26112314Y-3954831D01*
X-26114057Y-3939875D01*
X-26114403Y-3936384D01*
X-26118939Y-3880628D01*
X-26120391Y-3862774D01*
X-26122192Y-3857215D01*
X-26123337Y-3851484D01*
X-26123212Y-3851459D01*
X-26123954Y-3848056D01*
X-26124078Y-3848085D01*
X-26125422Y-3842397D01*
X-26126099Y-3836593D01*
X-26132773Y-3818205D01*
X-26151287Y-3767202D01*
X-26152428Y-3763880D01*
X-26163288Y-3730357D01*
X-26175187Y-3693625D01*
X-26178222Y-3688624D01*
X-26180652Y-3683316D01*
X-26180536Y-3683263D01*
X-26182043Y-3680119D01*
X-26182156Y-3680176D01*
X-26184773Y-3674949D01*
X-26186766Y-3669459D01*
X-26189968Y-3664575D01*
X-26189970Y-3664571D01*
X-26227250Y-3607709D01*
X-26229111Y-3604761D01*
X-26267427Y-3541619D01*
X-26274867Y-3533195D01*
X-26274742Y-3533085D01*
X-26277149Y-3530009D01*
X-26277301Y-3530136D01*
X-26281050Y-3525651D01*
X-26284254Y-3520765D01*
X-26288493Y-3516749D01*
X-26288495Y-3516747D01*
X-26341014Y-3466996D01*
X-26342964Y-3465098D01*
X-28845927Y-962135D01*
X-28874153Y-906737D01*
X-28864427Y-845329D01*
X-28820463Y-801365D01*
X-28774792Y-790400D01*
X-1165998Y-790400D01*
X-1105711Y-810465D01*
X-1028706Y-868110D01*
X-1017858Y-877510D01*
X-877510Y-1017858D01*
X-868111Y-1028706D01*
X-801583Y-1117577D01*
X-781539Y-1179959D01*
X-1779837Y-49098295D01*
X-1800277Y-49157014D01*
X-1851327Y-49192503D01*
X-1880415Y-49196800D01*
X-48851099Y-49196800D01*
X-48911386Y-49176734D01*
X-48971293Y-49131888D01*
X-48982141Y-49122489D01*
X-49122491Y-48982139D01*
X-49131890Y-48971292D01*
X-49164034Y-48928353D01*
X-49184100Y-48868065D01*
X-49184100Y-1131935D01*
X-49164034Y-1071647D01*
X-49131890Y-1028708D01*
X-49122491Y-1017861D01*
X-48982139Y-877509D01*
X-48971292Y-868110D01*
X-48894289Y-810466D01*
X-48834001Y-790400D01*
X-42192808Y-790400D01*
X-42133677Y-809613D01*
G37*
%TD.AperFunction*%
M02*
