%TF.GenerationSoftware,KiCad,Pcbnew,(6.0.0-0)*%
%TF.CreationDate,2022-07-24T14:36:37-07:00*%
%TF.ProjectId,ESP12_Harness,45535031-325f-4486-9172-6e6573732e6b,rev?*%
%TF.SameCoordinates,Original*%
%TF.FileFunction,Soldermask,Top*%
%TF.FilePolarity,Negative*%
%FSLAX46Y46*%
G04 Gerber Fmt 4.6, Leading zero omitted, Abs format (unit mm)*
G04 Created by KiCad (PCBNEW (6.0.0-0)) date 2022-07-24 14:36:37*
%MOMM*%
%LPD*%
G01*
G04 APERTURE LIST*
%ADD10C,0.100000*%
%ADD11O,2.517600X1.309600*%
%ADD12O,1.309600X2.517600*%
G04 APERTURE END LIST*
D10*
X-762000Y-19050000D02*
X-15494000Y-19050000D01*
X-15494000Y-19050000D02*
X-15494000Y-17907000D01*
X-15494000Y-17907000D02*
X-762000Y-17907000D01*
X-762000Y-17907000D02*
X-762000Y-19050000D01*
G36*
X-762000Y-19050000D02*
G01*
X-15494000Y-19050000D01*
X-15494000Y-17907000D01*
X-762000Y-17907000D01*
X-762000Y-19050000D01*
G37*
X-762000Y-15049500D02*
X-15494000Y-15049500D01*
X-15494000Y-15049500D02*
X-15494000Y-13906500D01*
X-15494000Y-13906500D02*
X-762000Y-13906500D01*
X-762000Y-13906500D02*
X-762000Y-15049500D01*
G36*
X-762000Y-15049500D02*
G01*
X-15494000Y-15049500D01*
X-15494000Y-13906500D01*
X-762000Y-13906500D01*
X-762000Y-15049500D01*
G37*
X-762000Y-5143500D02*
X-15494000Y-5143500D01*
X-15494000Y-5143500D02*
X-15494000Y-4000500D01*
X-15494000Y-4000500D02*
X-762000Y-4000500D01*
X-762000Y-4000500D02*
X-762000Y-5143500D01*
G36*
X-762000Y-5143500D02*
G01*
X-15494000Y-5143500D01*
X-15494000Y-4000500D01*
X-762000Y-4000500D01*
X-762000Y-5143500D01*
G37*
X-762000Y-9080500D02*
X-15494000Y-9080500D01*
X-15494000Y-9080500D02*
X-15494000Y-7937500D01*
X-15494000Y-7937500D02*
X-762000Y-7937500D01*
X-762000Y-7937500D02*
X-762000Y-9080500D01*
G36*
X-762000Y-9080500D02*
G01*
X-15494000Y-9080500D01*
X-15494000Y-7937500D01*
X-762000Y-7937500D01*
X-762000Y-9080500D01*
G37*
X-762000Y-13017500D02*
X-15494000Y-13017500D01*
X-15494000Y-13017500D02*
X-15494000Y-11874500D01*
X-15494000Y-11874500D02*
X-762000Y-11874500D01*
X-762000Y-11874500D02*
X-762000Y-13017500D01*
G36*
X-762000Y-13017500D02*
G01*
X-15494000Y-13017500D01*
X-15494000Y-11874500D01*
X-762000Y-11874500D01*
X-762000Y-13017500D01*
G37*
X-762000Y-7048500D02*
X-15494000Y-7048500D01*
X-15494000Y-7048500D02*
X-15494000Y-5905500D01*
X-15494000Y-5905500D02*
X-762000Y-5905500D01*
X-762000Y-5905500D02*
X-762000Y-7048500D01*
G36*
X-762000Y-7048500D02*
G01*
X-15494000Y-7048500D01*
X-15494000Y-5905500D01*
X-762000Y-5905500D01*
X-762000Y-7048500D01*
G37*
X-762000Y-11112500D02*
X-15494000Y-11112500D01*
X-15494000Y-11112500D02*
X-15494000Y-9969500D01*
X-15494000Y-9969500D02*
X-762000Y-9969500D01*
X-762000Y-9969500D02*
X-762000Y-11112500D01*
G36*
X-762000Y-11112500D02*
G01*
X-15494000Y-11112500D01*
X-15494000Y-9969500D01*
X-762000Y-9969500D01*
X-762000Y-11112500D01*
G37*
X-762000Y-17018000D02*
X-15494000Y-17018000D01*
X-15494000Y-17018000D02*
X-15494000Y-15875000D01*
X-15494000Y-15875000D02*
X-762000Y-15875000D01*
X-762000Y-15875000D02*
X-762000Y-17018000D01*
G36*
X-762000Y-17018000D02*
G01*
X-15494000Y-17018000D01*
X-15494000Y-15875000D01*
X-762000Y-15875000D01*
X-762000Y-17018000D01*
G37*
X-2667000Y-19050000D02*
X-17399000Y-19050000D01*
X-17399000Y-19050000D02*
X-17399000Y-17907000D01*
X-17399000Y-17907000D02*
X-2667000Y-17907000D01*
X-2667000Y-17907000D02*
X-2667000Y-19050000D01*
G36*
X-2667000Y-19050000D02*
G01*
X-17399000Y-19050000D01*
X-17399000Y-17907000D01*
X-2667000Y-17907000D01*
X-2667000Y-19050000D01*
G37*
X-2667000Y-15049500D02*
X-17399000Y-15049500D01*
X-17399000Y-15049500D02*
X-17399000Y-13906500D01*
X-17399000Y-13906500D02*
X-2667000Y-13906500D01*
X-2667000Y-13906500D02*
X-2667000Y-15049500D01*
G36*
X-2667000Y-15049500D02*
G01*
X-17399000Y-15049500D01*
X-17399000Y-13906500D01*
X-2667000Y-13906500D01*
X-2667000Y-15049500D01*
G37*
X-2667000Y-5143500D02*
X-17399000Y-5143500D01*
X-17399000Y-5143500D02*
X-17399000Y-4000500D01*
X-17399000Y-4000500D02*
X-2667000Y-4000500D01*
X-2667000Y-4000500D02*
X-2667000Y-5143500D01*
G36*
X-2667000Y-5143500D02*
G01*
X-17399000Y-5143500D01*
X-17399000Y-4000500D01*
X-2667000Y-4000500D01*
X-2667000Y-5143500D01*
G37*
X-2667000Y-9080500D02*
X-17399000Y-9080500D01*
X-17399000Y-9080500D02*
X-17399000Y-7937500D01*
X-17399000Y-7937500D02*
X-2667000Y-7937500D01*
X-2667000Y-7937500D02*
X-2667000Y-9080500D01*
G36*
X-2667000Y-9080500D02*
G01*
X-17399000Y-9080500D01*
X-17399000Y-7937500D01*
X-2667000Y-7937500D01*
X-2667000Y-9080500D01*
G37*
X-2667000Y-13017500D02*
X-17399000Y-13017500D01*
X-17399000Y-13017500D02*
X-17399000Y-11874500D01*
X-17399000Y-11874500D02*
X-2667000Y-11874500D01*
X-2667000Y-11874500D02*
X-2667000Y-13017500D01*
G36*
X-2667000Y-13017500D02*
G01*
X-17399000Y-13017500D01*
X-17399000Y-11874500D01*
X-2667000Y-11874500D01*
X-2667000Y-13017500D01*
G37*
X-2667000Y-7048500D02*
X-17399000Y-7048500D01*
X-17399000Y-7048500D02*
X-17399000Y-5905500D01*
X-17399000Y-5905500D02*
X-2667000Y-5905500D01*
X-2667000Y-5905500D02*
X-2667000Y-7048500D01*
G36*
X-2667000Y-7048500D02*
G01*
X-17399000Y-7048500D01*
X-17399000Y-5905500D01*
X-2667000Y-5905500D01*
X-2667000Y-7048500D01*
G37*
X-2667000Y-11112500D02*
X-17399000Y-11112500D01*
X-17399000Y-11112500D02*
X-17399000Y-9969500D01*
X-17399000Y-9969500D02*
X-2667000Y-9969500D01*
X-2667000Y-9969500D02*
X-2667000Y-11112500D01*
G36*
X-2667000Y-11112500D02*
G01*
X-17399000Y-11112500D01*
X-17399000Y-9969500D01*
X-2667000Y-9969500D01*
X-2667000Y-11112500D01*
G37*
X-2667000Y-17018000D02*
X-17399000Y-17018000D01*
X-17399000Y-17018000D02*
X-17399000Y-15875000D01*
X-17399000Y-15875000D02*
X-2667000Y-15875000D01*
X-2667000Y-15875000D02*
X-2667000Y-17018000D01*
G36*
X-2667000Y-17018000D02*
G01*
X-17399000Y-17018000D01*
X-17399000Y-15875000D01*
X-2667000Y-15875000D01*
X-2667000Y-17018000D01*
G37*
X-48768000Y-17843500D02*
X-34036000Y-17843500D01*
X-34036000Y-17843500D02*
X-34036000Y-18986500D01*
X-34036000Y-18986500D02*
X-48768000Y-18986500D01*
X-48768000Y-18986500D02*
X-48768000Y-17843500D01*
G36*
X-48768000Y-17843500D02*
G01*
X-34036000Y-17843500D01*
X-34036000Y-18986500D01*
X-48768000Y-18986500D01*
X-48768000Y-17843500D01*
G37*
X-48768000Y-15938500D02*
X-34036000Y-15938500D01*
X-34036000Y-15938500D02*
X-34036000Y-17081500D01*
X-34036000Y-17081500D02*
X-48768000Y-17081500D01*
X-48768000Y-17081500D02*
X-48768000Y-15938500D01*
G36*
X-48768000Y-15938500D02*
G01*
X-34036000Y-15938500D01*
X-34036000Y-17081500D01*
X-48768000Y-17081500D01*
X-48768000Y-15938500D01*
G37*
X-48768000Y-13906500D02*
X-34036000Y-13906500D01*
X-34036000Y-13906500D02*
X-34036000Y-15049500D01*
X-34036000Y-15049500D02*
X-48768000Y-15049500D01*
X-48768000Y-15049500D02*
X-48768000Y-13906500D01*
G36*
X-48768000Y-13906500D02*
G01*
X-34036000Y-13906500D01*
X-34036000Y-15049500D01*
X-48768000Y-15049500D01*
X-48768000Y-13906500D01*
G37*
X-48768000Y-11874500D02*
X-34036000Y-11874500D01*
X-34036000Y-11874500D02*
X-34036000Y-13017500D01*
X-34036000Y-13017500D02*
X-48768000Y-13017500D01*
X-48768000Y-13017500D02*
X-48768000Y-11874500D01*
G36*
X-48768000Y-11874500D02*
G01*
X-34036000Y-11874500D01*
X-34036000Y-13017500D01*
X-48768000Y-13017500D01*
X-48768000Y-11874500D01*
G37*
X-48768000Y-9969500D02*
X-34036000Y-9969500D01*
X-34036000Y-9969500D02*
X-34036000Y-11112500D01*
X-34036000Y-11112500D02*
X-48768000Y-11112500D01*
X-48768000Y-11112500D02*
X-48768000Y-9969500D01*
G36*
X-48768000Y-9969500D02*
G01*
X-34036000Y-9969500D01*
X-34036000Y-11112500D01*
X-48768000Y-11112500D01*
X-48768000Y-9969500D01*
G37*
X-48768000Y-7937500D02*
X-34036000Y-7937500D01*
X-34036000Y-7937500D02*
X-34036000Y-9080500D01*
X-34036000Y-9080500D02*
X-48768000Y-9080500D01*
X-48768000Y-9080500D02*
X-48768000Y-7937500D01*
G36*
X-48768000Y-7937500D02*
G01*
X-34036000Y-7937500D01*
X-34036000Y-9080500D01*
X-48768000Y-9080500D01*
X-48768000Y-7937500D01*
G37*
X-48768000Y-5969000D02*
X-34036000Y-5969000D01*
X-34036000Y-5969000D02*
X-34036000Y-7112000D01*
X-34036000Y-7112000D02*
X-48768000Y-7112000D01*
X-48768000Y-7112000D02*
X-48768000Y-5969000D01*
G36*
X-48768000Y-5969000D02*
G01*
X-34036000Y-5969000D01*
X-34036000Y-7112000D01*
X-48768000Y-7112000D01*
X-48768000Y-5969000D01*
G37*
X-48768000Y-3937000D02*
X-34036000Y-3937000D01*
X-34036000Y-3937000D02*
X-34036000Y-5080000D01*
X-34036000Y-5080000D02*
X-48768000Y-5080000D01*
X-48768000Y-5080000D02*
X-48768000Y-3937000D01*
G36*
X-48768000Y-3937000D02*
G01*
X-34036000Y-3937000D01*
X-34036000Y-5080000D01*
X-48768000Y-5080000D01*
X-48768000Y-3937000D01*
G37*
D11*
%TO.C,POGO-ESP-12*%
X-33296700Y-18453100D03*
X-18088700Y-4453100D03*
X-18088700Y-6453100D03*
X-33296700Y-4453100D03*
X-33296700Y-10453100D03*
X-18088700Y-16453100D03*
X-33296700Y-12453100D03*
X-33296700Y-16453100D03*
X-33296700Y-14453100D03*
X-18088700Y-10453100D03*
X-18088700Y-8453100D03*
X-18088700Y-14453100D03*
X-18088700Y-12453100D03*
X-18088700Y-18453100D03*
X-33296700Y-8453100D03*
X-33296700Y-6453100D03*
%TD*%
D12*
%TO.C,WEMOS-D1*%
X-26145200Y-43946600D03*
X-28145200Y-43946600D03*
X-38145200Y-28738600D03*
X-32145200Y-28738600D03*
X-34145200Y-28738600D03*
X-28145200Y-28738600D03*
X-30145200Y-28738600D03*
X-34145200Y-43946600D03*
X-36145200Y-43946600D03*
X-32145200Y-43946600D03*
X-36145200Y-28738600D03*
X-30145200Y-43946600D03*
X-24145200Y-43946600D03*
X-26145200Y-28738600D03*
X-24145200Y-28738600D03*
X-38145200Y-43946600D03*
%TD*%
M02*
