M48
; DRILL file {KiCad (6.0.0-0)} date Sunday, 24 July 2022 at 14:36:43
; FORMAT={-:-/ absolute / metric / decimal}
; #@! TF.CreationDate,2022-07-24T14:36:43-07:00
; #@! TF.GenerationSoftware,Kicad,Pcbnew,(6.0.0-0)
; #@! TF.FileFunction,Plated,1,2,PTH
FMAT,2
METRIC
; #@! TA.AperFunction,Plated,PTH,ViaDrill
T1C0.305
; #@! TA.AperFunction,Plated,PTH,ViaDrill
T2C0.400
; #@! TA.AperFunction,Plated,PTH,ComponentDrill
T3C0.700
%
G90
G05
T1
X-34.106Y-39.834
X-29.978Y-13.164
X-26.924Y-13.614
X-23.946Y-11.259
X-19.818Y-14.116
T2
X-42.062Y-32.766
X-39.116Y-19.964
X-33.153Y-41.535
X-21.184Y-27.33
X-20.879Y-29.007
T3
X-38.145Y-29.343
X-38.145Y-43.343
X-36.145Y-29.343
X-36.145Y-43.343
X-34.145Y-29.343
X-34.145Y-43.343
X-32.693Y-4.453
X-32.693Y-6.453
X-32.693Y-8.453
X-32.693Y-10.453
X-32.693Y-12.453
X-32.693Y-14.453
X-32.693Y-16.453
X-32.693Y-18.453
X-32.145Y-29.343
X-32.145Y-43.343
X-30.145Y-29.343
X-30.145Y-43.343
X-28.145Y-29.343
X-28.145Y-43.343
X-26.145Y-29.343
X-26.145Y-43.343
X-24.145Y-29.343
X-24.145Y-43.343
X-18.693Y-4.453
X-18.693Y-6.453
X-18.693Y-8.453
X-18.693Y-10.453
X-18.693Y-12.453
X-18.693Y-14.453
X-18.693Y-16.453
X-18.693Y-18.453
T0
M30
